<?xml version="1.0" encoding="UTF-8"?>
<!DOCTYPE svg PUBLIC "-//W3C//DTD SVG 1.1//EN" "http://www.w3.org/Graphics/SVG/1.1/DTD/svg11.dtd">
<!-- Creator: CorelDRAW 2020 (64 Bit) -->
<svg xmlns="http://www.w3.org/2000/svg" xml:space="preserve" width="43.3492mm" height="27.9398mm" version="1.1" style="shape-rendering:geometricPrecision; text-rendering:geometricPrecision; image-rendering:optimizeQuality; fill-rule:evenodd; clip-rule:evenodd"
viewBox="0 0 4334.92 2793.98"
 xmlns:xlink="http://www.w3.org/1999/xlink"
 xmlns:xodm="http://www.corel.com/coreldraw/odm/2003">
 <defs>
  <style type="text/css">
   <![CDATA[
    .str0 {stroke:white;stroke-width:35.28;stroke-miterlimit:22.9256;stroke-dasharray:352.780000 176.390000}
    .fil6 {fill:none}
    .fil1 {fill:#004A94}
    .fil5 {fill:#088B4F}
    .fil2 {fill:white}
    .fil4 {fill:#004A94;fill-rule:nonzero}
    .fil3 {fill:#0098DB;fill-rule:nonzero}
    .fil0 {fill:#004A94;fill-opacity:0.490196}
   ]]>
  </style>
 </defs>
 <g id="Camada_x0020_1">
  <metadata id="CorelCorpID_0Corel-Layer"/>
  <g id="_2314936068544">
   <path class="fil0" d="M2159.43 215.36c293.67,0 531.73,238.06 531.73,531.73 0,96.11 -25.51,186.27 -70.11,264.07 -284.51,-144.16 -640.25,-142.82 -917.8,9.21 -47.96,-79.86 -75.54,-173.35 -75.54,-273.29 0,-293.66 238.06,-531.72 531.72,-531.72l0 0z"/>
   <path class="fil1" d="M2246.04 1003.57c-11.81,11.07 -27.68,17.88 -45.09,17.88 -14.01,0 -27.03,-4.41 -37.73,-11.91 -2.11,1.52 -4.3,2.9 -6.53,4.13 -6.17,3.4 -12.97,5.72 -19.89,7.01 -6.06,1.13 -12.12,1.41 -18.26,0.84 -6.01,-0.56 -11.88,-1.91 -17.54,-4.03 -6.8,-2.55 -13.07,-6.13 -18.58,-10.86 -1.06,-0.9 -2.08,-1.84 -3.09,-2.83 -1.77,1.74 -3.69,3.38 -5.76,4.93 -6.22,4.65 -13.71,8.46 -21.15,10.75 -8.44,2.59 -16.92,3.23 -25.67,2.03 -7.78,-1.07 -15.89,-3.58 -22.92,-7.05 -5.92,-2.92 -11.06,-6.56 -15.62,-11.1 -0.12,0.17 -0.24,0.34 -0.36,0.5 -4.56,6.39 -10.66,12 -17.5,15.85 -6.24,3.52 -12.98,5.51 -20.08,6.25 -6.14,0.64 -12.12,0.31 -18.14,-1.12 -5.91,-1.4 -11.68,-3.81 -16.91,-6.89 -1.98,-1.15 -3.85,-2.4 -5.62,-3.75 -3.94,3.19 -8.34,5.92 -12.88,7.86 -7.06,3.03 -14.32,4.13 -21.94,3.74 -6.55,-0.34 -13.15,-1.69 -19.26,-4.09 -7.03,-2.76 -13.36,-6.91 -18.65,-12.32 -4.38,-4.49 -8.27,-10.04 -11.02,-15.67 -5.03,-10.31 -4.18,-23.33 -4.22,-34.56 -0.09,-27.44 0.06,-54.9 0.3,-82.33 0.2,-21.45 0.54,-42.86 1.44,-64.29 0.58,-13.94 1.34,-27.87 1.98,-41.81 -2.45,2.36 -5.29,4.36 -8.69,6.04 -3.81,1.87 -8,3.3 -12.11,4.34 -5.52,1.4 -11.01,2.01 -16.7,1.62 -6.49,-0.44 -13.1,-2.13 -19,-4.87 -6.57,-3.06 -12.53,-7.57 -17.03,-13.29 -4.94,-6.27 -7.95,-13.82 -8.52,-21.8 -0.55,-7.69 1.35,-14.18 3.64,-21.38 4.87,-15.32 10.48,-30.59 15.92,-45.7 12.04,-33.44 24.17,-67.58 37.85,-100.35 6.85,-16.41 13.97,-33.24 27.56,-45.24 4.12,-3.64 8.55,-6.99 13.22,-9.97 -0.14,-2.56 -0.13,-5.14 0.01,-7.7 -15.27,-16.48 -24.6,-38.53 -24.6,-62.76 0,-51 41.36,-92.37 92.37,-92.37 0.92,0 1.84,0.02 2.76,0.04 11.48,-25.68 26.02,-51.94 39.44,-76.29 2.1,-3.81 4.23,-7.69 6.39,-11.6 -2.95,-5.05 -5.07,-10.62 -6.23,-16.29 -1.83,-8.93 -1.34,-18.51 1.2,-27.26 2.12,-7.29 5.6,-13.71 10.51,-19.5 3.68,-4.33 8,-8.16 12.73,-11.32 3.76,-2.51 7.67,-4.49 11.85,-5.9 -12.28,-17.78 -19.47,-39.36 -19.47,-62.6 0,-60.93 49.41,-110.35 110.35,-110.35 32.95,0 63.27,14.63 83.77,38.51 20.17,-23.35 49.99,-38.13 83.26,-38.13 60.72,0 109.96,49.24 109.96,109.97 0,30.91 -12.75,58.84 -33.29,78.82 0,0 0,0 0.01,0 7.78,2.96 15.47,7 22.38,11.65 7.02,4.72 13.48,10.27 19.22,16.48 4.97,5.35 9.39,11.18 13.42,17.26 3.65,5.51 6.86,11.12 9.74,17.07 3.52,7.24 6.47,14.7 8.97,22.36 3.55,10.92 6.36,22.27 9.25,33.39 4.99,19.16 9.99,38.33 15.04,57.48 5.28,20.02 10.61,40.01 15.99,60 0.8,2.97 1.61,5.94 2.41,8.92 41.12,5.4 72.88,40.59 72.88,83.18 0,21.38 -8,40.89 -21.18,55.71 5.26,3.59 10.15,7.71 14.57,12.29 8.41,8.72 14.2,18.48 19.33,29.39 7.61,16.18 13.82,33.83 19.81,50.67 7.51,21.11 14.72,42.33 22.02,63.51 2.96,8.6 7.5,19.79 8.83,28.73 1.41,9.46 -0.33,18.51 -5.44,26.6 -3.92,6.18 -9.32,11.11 -15.51,14.95 -5.51,3.41 -12.02,6.25 -18.29,7.86 -6.56,1.68 -13.13,2.04 -19.78,0.91 0.66,5.31 1.32,10.62 1.99,15.93 1.28,10.31 2.62,20.62 3.86,30.93 0.93,7.79 -1.27,14.85 -6.48,20.72 -1.58,1.78 -3.31,3.31 -5.17,4.56 -0.01,20.7 -0.01,41.4 -0.22,62.1 -0.09,9.34 0.35,21.91 -2.79,30.78 -1.78,5.02 -4.41,9.52 -7.68,13.71 -2.88,3.71 -6.27,7.25 -9.91,10.23 -4.71,3.86 -9.85,6.73 -15.68,8.55 -5.1,1.59 -10.58,2.35 -15.92,2.46 -4.15,0.09 -8.27,-0.23 -12.37,-0.85 -5.03,-0.77 -9.51,-2.03 -14.1,-4.31 -1.22,-0.61 -2.42,-1.27 -3.61,-1.99 -2.56,1.48 -5.26,2.73 -8.02,3.75 -4.42,1.64 -9.05,2.72 -13.73,3.28 -4.58,0.55 -9.14,0.57 -13.73,0.04 -5.25,-0.6 -10.44,-1.91 -15.3,-3.98 -5.35,-2.27 -10.35,-5.48 -14.64,-9.4 -4.01,-3.66 -7.4,-7.94 -10.11,-12.65 -1.69,-2.94 -3.13,-6.06 -4.3,-9.26 -11.42,19.72 -32.77,33.04 -57.13,33.04 -17.41,0 -33.28,-6.8 -45.09,-17.88zm-271.29 -488.75c-0.77,0.77 -1.56,1.53 -2.35,2.28 0.77,0.42 1.54,0.85 2.31,1.29 0.02,-1.2 0.03,-2.38 0.04,-3.57z"/>
   <path class="fil2" d="M2078.79 42.71c37.9,0 69.92,25.14 80.32,59.65 -2.15,7.71 -3.3,15.83 -3.3,24.22 0,8.39 1.15,16.51 3.3,24.21 -10.4,34.52 -42.42,59.66 -80.32,59.66 -46.32,0 -83.87,-37.55 -83.87,-83.87 0,-46.32 37.55,-83.87 83.87,-83.87l0 0z"/>
   <path class="fil2" d="M2245.83 43.09c46.11,0 83.49,37.38 83.49,83.49 0,46.11 -37.38,83.49 -83.49,83.49 -46.11,0 -83.49,-37.38 -83.49,-83.49 0,-46.11 37.38,-83.49 83.49,-83.49z"/>
   <path class="fil2" d="M1909.27 383.78c36.39,0 65.89,29.5 65.89,65.89 0,36.39 -29.5,65.9 -65.89,65.9 -36.39,0 -65.9,-29.51 -65.9,-65.9 0,-36.39 29.51,-65.89 65.9,-65.89z"/>
   <path class="fil2" d="M2427.91 475.77c31.71,0 57.42,25.71 57.42,57.42 0,31.71 -25.71,57.42 -57.42,57.42 -31.71,0 -57.42,-25.71 -57.42,-57.42 0,-31.71 25.71,-57.42 57.42,-57.42z"/>
   <path class="fil2" d="M1787.77 684.65c10.07,-27.98 26.73,-73.62 37.37,-99.11 10.64,-25.49 15.27,-30.84 20.65,-35.59 5.38,-4.75 11.51,-8.9 17.89,-11.9 6.37,-3.01 12.98,-4.87 18.21,-6.11 5.23,-1.23 9.08,-1.83 16.5,-2.07 7.43,-0.24 18.43,-0.12 27.57,0.69 9.14,0.81 16.41,2.32 24.11,5.32 7.7,3.01 15.81,7.52 22.24,12.87 6.44,5.35 11.19,11.54 14.58,16.83 3.4,5.29 5.45,9.68 9.77,21.07 4.33,11.4 10.95,29.79 20.56,56.88 9.62,27.08 22.25,62.86 28.65,81.64 6.4,18.79 6.58,20.59 4.48,22.52 -2.1,1.92 -6.49,3.97 -11.61,5.41 -5.1,1.44 -10.94,2.28 -15.02,2.67 -4.09,0.39 -6.44,0.33 -7.85,-0.03 -1.41,-0.36 -1.9,-1.02 -2.32,-1.68 -0.42,-0.66 -0.78,-1.32 -8.29,-21.7 -7.52,-20.38 -22.19,-60.48 -29.52,-80.87 -7.34,-20.38 -7.34,-21.04 -7.31,-20.95 0.03,0.09 0.09,0.93 0.3,30.6 0.22,29.67 0.57,88.17 1.3,128.09 0.72,39.92 1.8,61.26 2.28,88.17 0.48,26.9 0.36,59.37 0.18,76.98 -0.18,17.62 -0.42,20.38 -1.32,23.66 -0.9,3.28 -2.46,7.06 -4.87,10.43 -2.41,3.37 -5.65,6.31 -8.96,8.18 -3.31,1.86 -6.67,2.64 -9.83,2.97 -3.15,0.33 -6.1,0.21 -9.26,-0.54 -3.15,-0.75 -6.52,-2.13 -9.65,-3.97 -3.12,-1.83 -6.01,-4.11 -8.26,-7.84 -2.26,-3.73 -3.88,-8.9 -4.39,-27.81 -0.51,-18.91 0.09,-51.55 0.21,-75.63 0.12,-24.08 -0.24,-39.59 -0.81,-54.2 -0.57,-14.61 -1.36,-28.32 -1.75,-35.17 -0.39,-6.86 -0.39,-6.86 -0.39,-6.86 0,0 0,0 -1.05,0 -1.05,0 -3.16,0 -4.21,0.07 -1.05,0.06 -1.05,0.18 -1.05,0.24 0,0.06 0,0.06 -0.09,3.33 -0.09,3.28 -0.27,9.83 -0.96,20.53 -0.69,10.7 -1.9,25.55 -2.29,47.47 -0.39,21.91 0.03,50.89 0.12,71.18 0.09,20.29 -0.15,31.9 -0.54,39.17 -0.39,7.27 -0.93,10.22 -2.04,13.11 -1.11,2.88 -2.8,5.71 -5.38,8.38 -2.59,2.68 -6.08,5.2 -9.44,6.65 -3.37,1.44 -6.61,1.8 -10.16,1.62 -3.55,-0.18 -7.4,-0.9 -10.91,-2.29 -3.52,-1.38 -6.71,-3.42 -9.41,-6.19 -2.71,-2.76 -4.93,-6.25 -6.16,-8.78 -1.24,-2.52 -1.48,-4.09 -1.54,-23.02 -0.06,-18.94 0.06,-55.25 0.3,-82.01 0.24,-26.75 0.6,-43.95 1.41,-63.43 0.82,-19.47 2.08,-41.24 2.68,-59.36 0.6,-18.13 0.54,-32.62 0.36,-50.99 -0.18,-18.36 -0.48,-40.61 -0.66,-53.6 -0.18,-12.98 -0.24,-16.71 -0.27,-18.57 -0.03,-1.87 -0.03,-1.87 -0.03,-1.87 0,0 0,0 -6.1,17.17 -6.11,17.16 -18.31,51.49 -25.49,71.69 -7.19,20.2 -9.35,26.28 -10.95,29.73 -1.59,3.46 -2.61,4.3 -4.38,5.17 -1.78,0.87 -4.3,1.78 -6.92,2.44 -2.61,0.66 -5.32,1.08 -8.42,0.87 -3.09,-0.21 -6.58,-1.05 -9.61,-2.47 -3.04,-1.41 -5.63,-3.39 -7.4,-5.65 -1.77,-2.25 -2.73,-4.78 -2.92,-7.3 -0.18,-2.53 0.42,-5.05 2.47,-11.48 2.04,-6.44 5.53,-16.78 15.6,-44.77l0 0.01z"/>
   <path class="fil2" d="M1915.41 528.32c-5.2,0.03 -15.06,0.09 -20.82,0.17 -5.75,0.07 -7.41,0.16 -10.13,0.97 -2.72,0.81 -6.51,2.35 -8.82,3.05 -2.32,0.71 -3.16,0.59 -3.79,0.08 -0.63,-0.51 -1.05,-1.41 -1.74,-3.43 -0.69,-2.01 -1.66,-5.14 -2.03,-8.6 -0.38,-3.45 -0.17,-7.24 0.07,-9.56 0.24,-2.31 0.52,-3.15 0.76,-3.74 0.24,-0.58 0.45,-0.91 0.73,-1.03 0.29,-0.12 0.65,-0.03 0.95,0.1 0.3,0.14 0.54,0.32 2.06,1.38 1.52,1.07 4.31,3.03 7.74,4.83 3.43,1.8 7.48,3.46 13.8,4.67 6.31,1.22 14.88,2 20.29,2.03 5.41,0.03 7.66,-0.69 8.91,-1.09 1.25,-0.41 1.49,-0.5 1.52,-0.4 0.03,0.11 -0.15,0.41 -0.71,2.09 -0.55,1.69 -1.49,4.75 -1.97,6.39 -0.48,1.64 -0.51,1.85 -0.79,1.96 -0.29,0.1 -0.83,0.1 -6.03,0.13z"/>
   <path class="fil2" d="M1932.96 375.58c8.57,-20.26 27.69,-56.33 41.7,-81.76 14.01,-25.43 22.9,-40.22 29.28,-49.24 6.37,-9.02 10.22,-12.27 14.3,-14.37 4.09,-2.11 8.42,-3.07 26.7,-3.61 18.28,-0.54 50.5,-0.66 69.05,-0.27 18.55,0.39 23.41,1.29 29.46,4.12 6.04,2.83 13.26,7.57 17.49,10.49 4.24,2.92 5.5,4 6.02,4.78 0.51,0.78 0.26,1.26 0,1.65 -0.28,0.39 -0.58,0.69 -0.82,1.35 -0.24,0.67 -0.42,1.69 -0.51,3.28 -0.09,1.6 -0.09,3.76 -0.69,23.06 -0.6,19.3 -1.8,55.73 -2.4,74.34 -0.61,18.6 -0.61,19.38 -0.82,19.33 -0.21,-0.06 -0.63,-0.97 -1.32,-2.17 -0.69,-1.2 -1.65,-2.71 -2.34,-3.52 -0.69,-0.81 -1.11,-0.93 -1.3,-0.72 -0.18,0.21 -0.12,0.75 -0.06,16.12 0.06,15.36 0.13,45.54 -0.48,67.84 -0.6,22.31 -1.86,36.73 -3.6,56.45 -1.75,19.73 -3.97,44.74 -6.05,68.78 -2.07,24.05 -3.99,47.14 -6.58,70.25 -2.59,23.12 -5.83,46.27 -8.81,64.48 -2.97,18.22 -5.68,31.51 -7.48,39.74 -1.81,8.24 -2.71,11.43 -3.34,13.59 -0.63,2.17 -0.99,3.31 -1.2,3.97 -0.21,0.66 -0.27,0.84 0.03,0.9 0.3,0.06 0.96,0 7.18,-0.09 6.23,-0.09 18.01,-0.21 23.9,-0.27 5.89,-0.06 5.89,-0.06 5.89,-0.06 0,0 0,0 0,32.58 0,32.59 0,97.76 0.03,131.64 0.03,33.88 0.09,36.46 0.51,38.36 0.42,1.89 1.21,3.09 1.72,3.97 0.51,0.87 0.75,1.41 0.93,2.01 0.18,0.6 0.3,1.26 -0.45,2.92 -0.75,1.65 -2.38,4.29 -4.96,7.09 -2.59,2.8 -6.13,5.74 -10.01,7.88 -3.88,2.13 -8.09,3.45 -11.96,4.17 -3.88,0.73 -7.43,0.85 -10.98,0.52 -3.54,-0.33 -7.09,-1.12 -10.7,-2.47 -3.61,-1.35 -7.27,-3.27 -10.64,-6.16 -3.37,-2.89 -6.43,-6.74 -8.6,-10.1 -2.16,-3.37 -3.42,-6.25 -4.24,-8.96 -0.81,-2.7 -1.17,-5.23 -1.29,-45.3 -0.12,-40.07 0,-117.69 -0.72,-178.83 -0.72,-61.14 -2.29,-105.81 -3.07,-128.15 -0.78,-22.33 -0.78,-22.33 -0.78,-22.33 0,0 0,0 -0.51,0.06 -0.51,0.06 -1.53,0.18 -2.04,0.24 -0.52,0.06 -0.52,0.06 -0.52,0.06 0,0 0,0 -0.84,44.58 -0.84,44.58 -2.52,133.74 -3.27,193.65 -0.75,59.91 -0.57,90.57 -0.69,108.22 -0.12,17.65 -0.54,22.28 -1.78,26.69 -1.23,4.42 -3.27,8.63 -5.47,12.15 -2.19,3.51 -4.54,6.34 -8.11,9.01 -3.58,2.68 -8.39,5.21 -13.08,6.65 -4.69,1.44 -9.26,1.8 -14.28,1.11 -5.02,-0.69 -10.49,-2.43 -14.82,-4.57 -4.33,-2.13 -7.52,-4.66 -10.4,-7.99 -2.89,-3.34 -5.47,-7.49 -7.25,-11.13 -1.77,-3.63 -2.73,-6.76 -3.15,-18.54 -0.42,-11.79 -0.3,-32.23 -0.06,-72.99 0.24,-40.76 0.6,-101.85 0.78,-132.39 0.09,-14.9 0.13,-22.53 0.24,-29.29 1.89,5.14 3.78,10.27 5.68,15.41 2.25,6.11 4.48,12.24 6.83,18.31 0.1,0.25 0.2,0.51 0.3,0.78l45.41 -16.5c-0.24,-0.78 -0.49,-1.57 -0.73,-2.35 -1.08,-3.41 -2.24,-6.8 -3.39,-10.19 -9.31,-27.3 -19.01,-54.52 -28.67,-81.7 -6.74,-18.99 -13.43,-38.11 -20.59,-56.96 -0.27,-0.7 -0.53,-1.39 -0.8,-2.09 0.92,-30.17 1.38,-46.03 1.55,-76.8 0.18,-31.93 0.06,-79.9 -0.06,-106.78 -0.12,-26.87 -0.24,-32.64 -0.3,-35.53 -0.06,-2.89 -0.06,-2.89 -0.06,-2.89 0,0 0,0 -8,15.82 -5.15,10.2 -13.64,26.98 -21.45,41.41 -8.43,-16.66 -23.36,-29.48 -41.45,-35.11 0.81,-2.27 1.8,-4.8 2.99,-7.62l0 -0.01z"/>
   <path class="fil2" d="M1995.31 266.85c-2.5,-0.75 -6.95,-2.31 -10.5,-5.59 -3.54,-3.27 -6.19,-8.26 -7.24,-13.4 -1.05,-5.14 -0.51,-10.43 0.69,-14.58 1.2,-4.15 3.07,-7.16 5.26,-9.74 2.2,-2.59 4.72,-4.75 7.25,-6.44 2.52,-1.68 5.05,-2.88 8.08,-3.48 3.04,-0.6 6.59,-0.6 25.88,0.57 19.3,1.17 54.35,3.52 71.88,4.69 17.52,1.17 17.52,1.17 17.55,1.2 0.03,0.03 0.09,0.09 -13.67,0.09 -13.77,0 -41.37,-0.06 -56.58,0.15 -15.21,0.21 -18.03,0.69 -21.16,1.53 -3.13,0.85 -6.55,2.05 -9.98,4.18 -3.43,2.14 -6.85,5.2 -9.53,8.66 -2.67,3.46 -4.6,7.3 -5.83,10.46 -1.23,3.16 -1.77,5.62 -1.89,7.42 -0.11,1.81 0.2,2.95 0.65,4.3 0.45,1.35 1.04,2.92 1.58,4.24 0.53,1.32 1.01,2.41 1.19,3.43 0.18,1.02 0.06,1.98 -0.27,2.49 -0.33,0.52 -0.87,0.57 -3.36,-0.18z"/>
   <path class="fil2" d="M2139.07 222.04c5.54,0.54 16.37,1.62 27.04,2.52 10.67,0.9 21.19,1.62 31.29,1.86 10.1,0.24 19.78,0 34.57,-0.03 14.79,-0.03 34.69,0.15 46.62,0.15 11.94,0 15.91,-0.18 20.2,0.21 4.3,0.39 8.93,1.35 14.31,3.4 5.38,2.04 11.51,5.17 17.02,8.87 5.5,3.7 10.37,7.97 14.58,12.5 4.2,4.54 7.75,9.35 10.76,13.89 3,4.54 5.47,8.81 7.99,14.01 2.53,5.2 5.11,11.33 7.61,19 2.49,7.66 4.9,16.86 8.81,31.86 3.9,15 9.31,35.8 15.06,57.57 5.74,21.76 11.81,44.49 16.02,60.12 3.01,11.2 5.08,18.76 6.49,24.44 -21.64,3.7 -39.44,18.68 -47.11,38.67 -0.59,-2.17 -1.27,-4.74 -2.09,-7.8 -4.6,-17.13 -13.38,-49.36 -20.99,-78.07 -7.6,-28.7 -14.04,-53.89 -17.68,-67.63 -3.63,-13.74 -4.47,-16.03 -4.87,-16.24 -0.38,-0.21 -0.33,1.66 -0.3,4.48 0.04,2.83 0.04,6.62 0.16,10.1 0.12,3.49 0.36,6.68 7.27,46.33 6.91,39.65 20.5,115.76 27.86,158.42 5.35,30.92 7.41,44.26 7.08,54.45 -3.37,3.44 -6.51,7.22 -9.21,10.95 -0.32,0.44 -0.63,0.88 -0.94,1.33 -2.16,3.15 -3.73,6.44 -5.23,9.93 -3.15,7.35 -5.9,15.03 -8.65,22.54 -11.09,30.29 -21.86,60.74 -32.54,91.17 -0.51,1.44 -1.01,2.87 -1.52,4.31 -0.45,0.01 -0.91,0 -1.41,-0.01 -4.54,-0.09 -11.63,-0.21 -41.7,-0.3 -30.07,-0.09 -83.11,-0.15 -109.7,-0.18 -26.58,-0.03 -26.7,-0.03 -26.68,-0.09 0.02,-0.06 0.17,-0.18 2.38,-6.58 2.22,-6.4 6.5,-19.07 9.97,-35.02 3.46,-15.96 6.11,-35.19 8.75,-56.48 2.65,-21.28 5.29,-44.61 8,-75.27 2.7,-30.66 5.47,-68.66 7.45,-111.58 1.99,-42.93 3.19,-90.79 3.49,-125.17 0.3,-34.39 -0.3,-55.32 -0.36,-68.84 -0.06,-13.53 0.42,-19.66 0.99,-23.39 0.57,-3.73 1.24,-5.05 1.78,-5.89 0.54,-0.84 0.96,-1.21 0.96,-1.45 0,-0.24 -0.42,-0.35 -0.93,-0.45 -0.52,-0.09 -1.12,-0.15 -2.6,-1.41 -1.49,-1.26 -3.87,-3.73 -8.84,-7.23 -4.98,-3.5 -12.55,-8.04 -16.97,-10.53 -4.41,-2.48 -5.65,-2.92 -6.83,-3.24 -1.18,-0.31 -2.3,-0.51 -2.73,-0.61 -0.42,-0.11 -0.17,-0.12 5.37,0.41z"/>
   <path class="fil2" d="M2456.25 601.24c2.99,1.1 8.52,3.15 14.02,6.18 5.5,3.04 10.97,7.07 15.88,12.15 4.89,5.08 9.22,11.21 14.42,22.27 5.2,11.06 11.27,27.06 18.82,48.28 7.55,21.22 16.56,47.68 21.94,63.28 5.38,15.6 7.13,20.35 7.67,23.99 0.54,3.63 -0.12,6.16 -1.62,8.53 -1.51,2.38 -3.85,4.6 -7.1,6.61 -3.24,2.02 -7.39,3.82 -10.91,4.72 -3.51,0.91 -6.4,0.91 -9.14,0.4 -2.73,-0.51 -5.32,-1.54 -7.27,-3.28 -1.96,-1.74 -3.28,-4.21 -9.89,-22.48 -6.62,-18.28 -18.52,-52.37 -24.5,-69.53 -5.98,-17.17 -6.04,-17.41 -6.04,-16.81 0,0.6 0.06,2.05 3.94,33.56 3.87,31.52 11.57,93.11 15.42,123.91 3.84,30.8 3.84,30.8 3.84,30.8 0,0 0,0 -1.97,0 -1.97,0 -5.9,0 -7.87,-0.02 -1.97,-0.01 -1.97,-0.04 -1.97,-0.05 0,-0.02 0,-0.02 -0.01,16.56 -0.02,16.58 -0.05,49.73 -0.23,67.47 -0.18,17.73 -0.51,20.05 -1.28,22.21 -0.77,2.17 -1.97,4.18 -3.61,6.29 -1.63,2.1 -3.71,4.29 -5.8,6.01 -2.09,1.71 -4.19,2.94 -6.79,3.76 -2.6,0.81 -5.7,1.2 -8.59,1.26 -2.88,0.06 -5.55,-0.21 -7.82,-0.56 -2.27,-0.34 -4.14,-0.77 -6.32,-1.85 -2.18,-1.08 -4.67,-2.82 -6.72,-4.78 -2.04,-1.95 -3.63,-4.11 -4.83,-6.4 -1.21,-2.28 -2.02,-4.69 -2.58,-6.76 -0.55,-2.08 -0.85,-3.82 -0.94,-20.91 -0.09,-17.09 0.03,-49.53 0.04,-65.92 0.02,-16.4 -0.07,-16.76 -0.25,-16.96 -0.18,-0.19 -0.45,-0.22 -0.68,0.03 -0.22,0.26 -0.41,0.8 -0.5,1.22 -0.09,0.42 -0.09,0.72 -0.04,17.3 0.04,16.58 0.13,49.44 0.07,66.51 -0.06,17.07 -0.27,18.37 -1.02,20.42 -0.75,2.06 -2.04,4.89 -3.44,7.25 -1.4,2.36 -2.9,4.25 -4.85,5.85 -1.96,1.59 -4.36,2.88 -6.87,3.81 -2.51,0.94 -5.13,1.51 -7.65,1.81 -2.53,0.3 -4.96,0.33 -7.56,0.03 -2.6,-0.3 -5.37,-0.93 -7.98,-2.05 -2.62,-1.11 -5.09,-2.7 -7.15,-4.58 -2.05,-1.88 -3.71,-4.04 -5.01,-6.31 -1.31,-2.27 -2.27,-4.65 -2.92,-6.77 -0.65,-2.11 -0.98,-3.98 -1.1,-21.33 -0.12,-17.34 -0.03,-50.17 0.02,-66.58 0.04,-16.41 0.04,-16.41 0.04,-16.41 0,0 0,0 -1.98,-0.02 -1.99,-0.01 -5.95,-0.04 -7.94,-0.06 -1.98,-0.01 -1.98,-0.01 -1.98,-0.01 0,0 0,0 3.9,-31.3 3.91,-31.29 11.73,-93.88 15.64,-125.17 3.91,-31.29 3.91,-31.29 3.91,-31.29 0,0 0,0 -5.87,16.62 -5.86,16.63 -17.58,49.87 -24.4,68.09 -6.83,18.21 -8.75,21.4 -11.25,23.71 -2.49,2.32 -5.56,3.76 -7.93,4.72 -2.38,0.96 -4.06,1.45 -5.93,1.75 -1.86,0.3 -3.91,0.42 -6.43,0.15 -2.53,-0.27 -5.53,-0.94 -7.82,-4.18 -2.28,-3.25 -3.84,-9.08 -4.93,-12.69 -1.08,-3.61 -1.68,-4.99 -1.89,-6.19 -0.21,-1.2 -0.03,-2.23 7.94,-24.92 7.96,-22.7 23.71,-67.07 32.52,-91.11 8.81,-24.05 10.67,-27.78 14.22,-32.68 3.55,-4.9 8.78,-10.97 14.23,-15.47 5.46,-4.49 11.14,-7.41 16.13,-9.42 4.99,-2.02 9.29,-3.13 12.07,-3.7 2.78,-0.57 4.04,-0.6 4.67,-0.61 0.63,-0.02 0.63,-0.02 0.63,-0.02 0,0 0,0 0,0.54 0,0.54 0,1.62 -0.01,2.17 -0.02,0.54 -0.05,0.54 -0.06,0.54 -0.02,0 -0.02,0 0.9,-0.23 0.92,-0.22 2.75,-0.67 7.29,-0.96 4.54,-0.29 11.78,-0.41 17.06,-0.29 5.27,0.12 8.58,0.49 10.46,0.74 1.88,0.26 2.33,0.41 2.56,0.48 0.22,0.08 0.22,0.08 0.22,-0.42 0,-0.5 0,-1.49 -0.01,-1.98 -0.02,-0.5 -0.05,-0.5 -0.06,-0.5 -0.02,0 -0.02,0 0.81,0.03 0.83,0.03 2.48,0.09 3.53,0.2 1.05,0.1 1.5,0.25 4.5,1.35l0 0z"/>
   <path class="fil2" d="M2364.35 747.49c2.63,-7.71 7.8,-22.8 10.5,-30.26 2.71,-7.45 2.95,-7.27 3.07,-7.18 0.12,0.09 0.12,0.09 -0.96,7.72 -1.08,7.64 -3.25,22.91 -4.33,30.54 -1.08,7.64 -1.08,7.64 -1.08,7.64 0,0 0,0 -1.67,0 -1.67,0 -5,0 -6.67,-0.01 -1.67,-0.01 -1.67,-0.02 -1.67,-0.03 0,-0.01 0,-0.01 0.04,-0.18 0.05,-0.17 0.14,-0.52 2.77,-8.24z"/>
   <path class="fil2" d="M2251.63 760.5l56.19 0c-1.34,3.82 -2.64,7.65 -3.84,11.48 -0.16,0.52 -0.34,1.06 -0.5,1.61l27.15 9.49 0 172.39c0,21.72 -17.77,39.5 -39.5,39.5l0 0c-21.72,0 -39.5,-17.78 -39.5,-39.5l0 -194.97 0 0z"/>
   <path class="fil2" d="M2161.45 760.5l79 0 0 194.98c0,21.72 -17.78,39.49 -39.5,39.49l-0.01 0c-21.72,0 -39.49,-17.77 -39.49,-39.49l0 -194.98z"/>
   <path class="fil3" d="M819.93 1496.61l0 -41.16 31.35 0c30.02,0 48.15,-20.58 48.15,-45.51 0,-25.68 -19.07,-45.51 -48.15,-45.51l-63.07 0 0 132.18 31.72 0zm0 -106.49l28.14 0c13.4,0 20.96,8.31 20.96,19.82 0,10.77 -6.8,19.83 -20.96,19.83l-28.14 0 0 -39.65zm131.61 106.49l0 -41.16 21.34 0 28.7 41.16 36.06 0 -31.72 -45.69c17.37,-6.42 27.57,-22.66 27.57,-40.98 0,-25.68 -19.07,-45.51 -48.15,-45.51l-65.53 0 0 132.18 31.73 0zm0 -106.49l30.59 0c13.59,0 20.96,8.31 20.96,19.82 0,10.77 -6.8,19.83 -20.96,19.83l-30.59 0 0 -39.65zm104.61 106.49l103.47 0 0 -25.3 -71.75 0 0 -28.51 61.93 0 0 -24.55 -61.93 0 0 -28.51 71.75 0 0 -25.31 -103.47 0 0 132.18zm127.26 -132.17l0 132.17 31.73 0 0 -49.09 61.93 0 0 -25.3 -61.93 0 0 -32.48 71.75 0 0 -25.3 -103.48 0zm125.19 132.17l103.48 0 0 -25.3 -71.75 0 0 -28.51 61.93 0 0 -24.55 -61.93 0 0 -28.51 71.75 0 0 -25.31 -103.48 0 0 132.18zm160.31 -132.17l-31.72 0 0 132.17 31.72 0 0 -132.17zm19.45 25.68l40.79 0 0 106.49 31.72 0 0 -106.49 40.97 0 0 -25.68 -113.48 0 0 25.68zm189.96 108.57c31.15,0 58.15,-18.31 58.15,-52.68l-0.19 -81.57 -31.72 0 0.19 81.57c0,14.54 -8.87,27 -26.62,27 -17.18,0 -26.44,-12.46 -26.44,-27l0 -81.57 -31.72 0 0 81.38c0,34.56 27,52.87 58.35,52.87zm117.82 -2.08l0 -41.16 21.34 0 28.7 41.16 36.06 0 -31.72 -45.69c17.37,-6.42 27.57,-22.66 27.57,-40.98 0,-25.68 -19.07,-45.5 -48.15,-45.5l-65.52 0 0 132.17 31.72 0zm0 -106.49l30.59 0c13.59,0 20.96,8.31 20.96,19.83 0,10.76 -6.8,19.82 -20.96,19.82l-30.59 0 0 -39.65zm92.9 106.49l33.42 0 10.95 -24.36 64.96 0 10.95 24.36 33.23 0 -60.05 -132.17 -33.22 0 -60.24 132.17zm76.85 -96.11l21.15 46.45 -42.29 0 21.14 -46.45zm142.75 96.11l31.73 0 0 -81.57 41.54 64.2 41.92 -64.2 0 81.57 31.71 0 0 -132.17 -32.28 0 -41.35 62.31 -40.98 -62.31 -32.29 0 0 132.17zm233.95 2.08c31.16,0 58.16,-18.31 58.16,-52.68l-0.19 -81.57 -31.72 0 0.19 81.57c0,14.54 -8.88,27 -26.63,27 -17.18,0 -26.43,-12.46 -26.43,-27l0 -81.57 -31.72 0 0 81.38c0,34.56 27,52.87 58.34,52.87zm86.1 -134.25l0 132.17 31.73 0 0 -82.13 59.29 82.13 33.04 0 0 -132.17 -31.72 0 0 82.51 -59.86 -82.51 -32.48 0zm185.8 0l-31.72 0 0 132.17 31.72 0 0 -132.17zm94.79 134.06c28.7,0 47.77,-14.54 55.7,-27.38l-20.2 -14.73c-5.85,7.75 -15.1,16.24 -33.99,16.24 -22.28,0 -40.97,-16.24 -40.97,-41.73 0,-25.87 18.88,-42.48 40.97,-42.48 16.81,0 26.82,7.74 33.61,16.05l21.15 -16.05c-10.57,-14.16 -30.02,-25.68 -56.27,-25.68 -38.52,0 -71.18,27 -71.18,68.16 0,41.73 32.1,67.6 71.18,67.6zm110.27 -134.06l-31.72 0 0 132.17 31.72 0 0 -132.17zm61.75 132.17l0 -41.16 31.34 0c30.03,0 48.16,-20.58 48.16,-45.51 0,-25.68 -19.08,-45.51 -48.16,-45.51l-63.06 0 0 132.18 31.72 0zm0 -106.49l28.13 0c13.41,0 20.96,8.31 20.96,19.82 0,10.77 -6.79,19.83 -20.96,19.83l-28.13 0 0 -39.65zm76.85 106.49l33.42 0 10.95 -24.36 64.96 0 10.95 24.36 33.23 0 -60.05 -132.18 -33.23 0 -60.23 132.18zm76.85 -96.11l21.15 46.45 -42.3 0 21.15 -46.45zm125.38 70.43l0 -106.5 -31.72 0 0 132.18 95.35 0 0 -25.68 -63.63 0zm134.25 -106.49l0 132.17 56.84 0c41.73,0 69.49,-26.43 69.49,-66.08 0.18,-38.34 -27.38,-66.09 -69.49,-66.09l-56.84 0zm31.72 106.49l0 -80.82 25.12 0c22.47,0 37.95,16.43 37.76,40.41 0,23.23 -15.86,40.41 -37.76,40.41l-25.12 0zm116.88 25.68l103.48 0 0 -25.3 -71.75 0 0 -28.51 61.93 0 0 -24.55 -61.93 0 0 -28.51 71.75 0 0 -25.31 -103.48 0 0 132.18z"/>
   <path class="fil4" d="M21.95 1944.4c17.84,11.36 77.29,46.49 177.28,46.49 109.18,0 171.88,-55.13 172.42,-127.56 1.08,-130.26 -222.68,-112.42 -222.68,-148.1 0,-7.02 8.64,-14.05 39.45,-14.05 67.56,0 107.56,18.38 125.4,30.81l50.26 -83.78c-22.16,-14.05 -71.34,-45.94 -175.65,-45.94 -112.43,0 -163.78,53.51 -163.78,114.04 0,133.51 222.15,116.21 222.69,158.37 0,12.97 -16.22,17.3 -41.08,17.3 -72.43,0 -112.96,-24.33 -132.96,-36.76l-51.35 89.18zm365.92 40.54l130.8 0 23.24 -52.43 160.53 0 22.7 52.43 130.26 0 -168.1 -378.89 -130.8 0 -168.63 378.89zm196.74 -150.8l37.3 -85.58 37.29 85.58 -74.59 0zm308.62 150.8l124.32 0 0 -177.55 127.02 177.55 124.31 0 0 -378.89 -124.31 0 0 175.94 -127.02 -175.94 -124.32 0 0 378.89zm528.07 -279.98l0 279.98 124.31 0 0 -279.98 109.73 0 0 -98.91 -343.22 0 0 98.91 109.18 0zm217.82 279.98l130.8 0 23.24 -52.43 160.53 0 22.7 52.43 130.26 0 -168.1 -378.89 -130.8 0 -168.63 378.89zm196.74 -150.8l37.3 -85.58 37.29 85.58 -74.59 0zm449.16 150.8l124.31 0 0 -179.17 101.07 153.68 102.7 -154.22 0 179.71 124.31 0 0 -378.89 -124.31 0 -102.7 148.82 -101.07 -148.82 -124.31 0 0 378.89zm490.23 0l130.8 0 23.24 -52.43 160.53 0 22.7 52.43 130.26 0 -168.1 -378.89 -130.8 0 -168.63 378.89zm196.74 -150.8l37.3 -85.58 37.29 85.58 -74.59 0zm308.63 150.8l124.31 0 0 -101.07 27.03 0 67.56 101.07 140.53 0 -80.54 -120.53c42.7,-23.78 66.49,-67.56 66.49,-119.18 -0.55,-77.56 -54.59,-139.18 -147.56,-139.18l-197.82 0 0 378.89 0 0zm189.71 -279.98c24.87,0 37.3,20.09 37.3,40.27 0,19.64 -12.43,39.73 -37.3,39.73l-65.4 0 0 -80 65.4 0zm334.57 -98.91l-124.32 0 0 378.89 124.32 0 0 -378.89zm40.53 378.89l130.8 0 23.25 -52.43 160.52 0 22.7 52.43 130.27 0 -168.1 -378.89 -130.8 0 -168.64 378.89zm196.75 -150.8l37.29 -85.58 37.29 85.58 -74.58 0z"/>
   <path class="fil4" d="M322.88 2017.98l0 313.47 142.65 0c104.64,0 168.13,-62.6 168.13,-156.73 0,-91.45 -63.94,-156.73 -168.13,-156.73l-142.65 0 0 -0.01zm142.65 81.84c38.9,0 65.28,30.48 65.28,74.9 0,43.07 -27.72,74.9 -65.28,74.9l-39.8 0 0 -149.8 39.8 0zm366.67 237c99.28,0 171.27,-72 171.27,-162.77 0.45,-89.44 -71.99,-160.54 -171.27,-160.54 -99.27,0 -171.71,70.21 -171.71,160.54 0,89.43 72.44,162.77 171.71,162.77zm-68.86 -162.78c0,-41.58 30.86,-72.89 68.86,-72.89 37.57,0 68.42,30.86 68.42,72.89 0.45,42.49 -30.41,75.13 -68.42,75.13 -38,0 -68.86,-32.64 -68.86,-75.13zm469.08 -74.23l0 231.64 102.85 0 0 -231.64 90.77 0 0 -81.83 -283.95 0 0 81.83 90.33 0 0 0zm372.05 237.01c99.27,0 171.26,-72 171.26,-162.78 0.45,-89.43 -71.99,-160.53 -171.26,-160.53 -99.28,0 -171.72,70.2 -171.72,160.53 0,89.44 72.44,162.78 171.72,162.78zm-68.87 -162.78c0,-41.59 30.86,-72.89 68.87,-72.89 37.56,0 68.41,30.86 68.41,72.89 0.45,42.48 -30.4,75.13 -68.41,75.13 -38.01,0 -68.87,-32.65 -68.87,-75.13zm438.68 161.88c81.83,0 126.54,-45.17 139.96,-72.44l-66.18 -45.17c-7.16,12.97 -23.25,34.88 -68.86,34.88 -39.8,0 -73.79,-29.96 -73.79,-77.36 0,-48.3 35.33,-79.6 74.68,-79.15 37.11,0.45 55.89,18.78 65.73,33.54l68.42 -49.64c-20.57,-33.09 -67.97,-65.73 -139.96,-65.73 -93.02,0 -171.72,63.5 -171.72,160.98 0,98.38 77.36,160.09 171.72,160.09zm155.61 -4.47l108.22 0 19.23 -43.38 132.81 0 18.78 43.38 107.77 0 -139.07 -313.47 -108.22 0 -139.52 313.47zm162.78 -124.77l30.85 -70.8 30.86 70.8 -61.71 0 0 0zm255.33 124.77l102.84 0 0 -146.9 105.09 146.9 102.84 0 0 -313.47 -102.84 0 0 145.55 -105.09 -145.55 -102.84 0 0 313.47zm436.88 -231.64l0 231.64 102.85 0 0 -231.64 90.77 0 0 -81.83 -283.95 0 0 81.83 90.33 0 0 0zm334.49 -81.83l-102.85 0 0 313.47 102.85 0 0 -313.47zm55.9 313.47l102.84 0 0 -146.9 105.09 146.9 102.84 0 0 -313.47 -102.84 0 0 145.55 -105.09 -145.55 -102.84 0 0 313.47zm346.55 -33.54c14.76,9.39 63.95,38.46 146.67,38.46 90.33,0 142.2,-45.62 142.65,-105.54 0.9,-107.77 -184.23,-93.01 -184.23,-122.52 0,-5.82 7.15,-11.63 32.64,-11.63 55.9,0 88.99,15.2 103.74,25.49l41.59 -69.31c-18.33,-11.63 -59.03,-38.01 -145.33,-38.01 -93.01,0 -135.49,44.27 -135.49,94.35 0,110.45 183.78,96.14 184.23,131.02 0,10.73 -13.41,14.31 -33.98,14.31 -59.93,0 -93.46,-20.12 -110.01,-30.4l-42.48 73.78z"/>
   <path class="fil3" d="M523.38 2476c0.15,7.88 6.69,13.68 14.43,13.68 8.04,0 14.43,-6.25 14.43,-13.68 0,-5.81 -3.72,-10.87 -9.07,-12.65 1.04,-3.87 2.68,-7.89 4.61,-10.71l-10.86 -5.21c-5.8,5.65 -13.69,18.6 -13.54,28.57zm45.53 0c0.15,7.88 6.7,13.68 14.43,13.68 8.04,0 14.44,-6.25 14.44,-13.68 0,-5.81 -3.72,-10.87 -9.08,-12.65 1.04,-3.87 2.68,-7.89 4.61,-10.71l-10.86 -5.21c-5.8,5.65 -13.69,18.6 -13.54,28.57zm48.51 -27.09l0 104.16 81.53 0 0 -19.94 -56.54 0 0 -22.47 48.8 0 0 -19.34 -48.8 0 0 -22.47 56.54 0 0 -19.94 -81.53 0zm20.53 -11.15l15.77 0 20.98 -13.99 -10.42 -10.41 -26.33 24.4zm110.1 31.39l32.14 0 0 83.92 25 0 0 -83.92 32.28 0 0 -20.23 -89.42 0 0 20.23zm103.7 83.92l81.54 0 0 -19.94 -56.54 0 0 -22.47 48.8 0 0 -19.34 -48.8 0 0 -22.47 56.54 0 0 -19.94 -81.54 0 0 104.16zm100.28 0l25 0 0 -64.28 32.73 50.59 33.03 -50.59 0 64.28 25 0 0 -104.16 -25.44 0 -32.59 49.11 -32.28 -49.11 -25.45 0 0 104.16zm163.37 0l0 -32.44 24.7 0c23.66,0 37.94,-16.22 37.94,-35.86 0,-20.23 -15.03,-35.86 -37.94,-35.86l-49.7 0 0 104.16 25 0zm0 -83.92l22.17 0c10.56,0 16.51,6.55 16.51,15.63 0,8.48 -5.35,15.62 -16.51,15.62l-22.17 0 0 -31.25zm73.65 31.54c0,29.76 24.25,54.01 56.09,54.01 31.69,0 55.94,-23.8 56.09,-54.01 0.15,-29.76 -24.1,-53.41 -56.09,-53.41 -31.69,0 -56.09,23.21 -56.09,53.41zm24.99 0c0,-17.85 13.99,-31.98 31.1,-31.98 17.26,0 31.1,14.13 31.25,31.98 0,17.86 -13.99,32.74 -31.25,32.74 -17.11,0 -31.1,-14.88 -31.1,-32.74zm143.43 -51.78l0 104.16 44.79 0c32.88,0 54.75,-20.83 54.75,-52.08 0.15,-30.2 -21.57,-52.08 -54.75,-52.08l-44.79 0zm25 83.92l0 -63.68 19.79 0c17.7,0 29.9,12.95 29.76,31.84 0,18.3 -12.5,31.84 -29.76,31.84l-19.79 0zm92.1 20.24l81.53 0 0 -19.94 -56.53 0 0 -22.47 48.8 0 0 -19.34 -48.8 0 0 -22.47 56.53 0 0 -19.94 -81.53 0 0 104.16zm190 1.49c22.61,0 37.64,-11.46 43.89,-21.58l-15.92 -11.61c-4.61,6.1 -11.9,12.8 -26.78,12.8 -17.56,0 -32.29,-12.8 -32.29,-32.88 0,-20.39 14.88,-33.48 32.29,-33.48 13.24,0 21.12,6.1 26.48,12.65l16.67 -12.65c-8.34,-11.16 -23.66,-20.23 -44.34,-20.23 -30.35,0 -56.09,21.27 -56.09,53.71 0,32.88 25.29,53.27 56.09,53.27zm85.85 -1.49l0 -32.44 16.81 0 22.62 32.44 28.42 0 -25 -36.01c13.69,-5.06 21.72,-17.86 21.72,-32.29 0,-20.23 -15.03,-35.86 -37.94,-35.86l-51.63 0 0 104.16 25 0zm0 -83.92l24.1 0c10.71,0 16.52,6.55 16.52,15.63 0,8.48 -5.36,15.62 -16.52,15.62l-24.1 0 0 -31.25zm82.42 83.92l81.54 0 0 -19.94 -56.54 0 0 -22.47 48.8 0 0 -19.34 -48.8 0 0 -22.47 56.54 0 0 -19.94 -81.54 0 0 104.16zm94.03 -12.35c4.47,3.12 19.64,13.98 47.76,13.98 27.83,0 44.49,-14.28 44.64,-33.33 0.3,-37.79 -66.95,-27.37 -66.95,-44.48 0,-4.62 3.86,-9.08 18,-9.08 19.19,0 30.05,5.8 34.81,9.23l10.42 -17.26c-6.1,-4.02 -19.04,-12.2 -45.23,-12.2 -29.61,0 -43,13.83 -43,29.6 0,37.5 66.95,27.23 66.95,45.98 0,7.29 -7.14,11.31 -18.59,11.31 -21.13,0 -33.19,-8.63 -37.8,-11.76l-11.01 18.01zm159.8 13.84c22.61,0 37.64,-11.46 43.89,-21.58l-15.92 -11.61c-4.61,6.1 -11.9,12.8 -26.78,12.8 -17.56,0 -32.29,-12.8 -32.29,-32.88 0,-20.39 14.88,-33.48 32.29,-33.48 13.24,0 21.13,6.1 26.48,12.65l16.67 -12.65c-8.34,-11.16 -23.66,-20.23 -44.34,-20.23 -30.36,0 -56.1,21.27 -56.1,53.71 0,32.88 25.3,53.27 56.1,53.27zm60.85 -1.49l81.53 0 0 -19.94 -56.53 0 0 -22.47 48.8 0 0 -19.34 -48.8 0 0 -22.47 56.53 0 0 -19.94 -81.53 0 0 104.16zm125.28 0l0 -32.44 16.81 0 22.62 32.44 28.42 0 -25 -36.01c13.69,-5.06 21.72,-17.86 21.72,-32.29 0,-20.23 -15.03,-35.86 -37.94,-35.86l-51.63 0 0 104.16 25 0zm0 -83.92l24.1 0c10.71,0 16.52,6.55 16.52,15.63 0,8.48 -5.36,15.62 -16.52,15.62l-24.1 0 0 -31.25zm121.11 83.92l81.53 0 0 -19.94 -56.54 0 0 -22.47 48.81 0 0 -19.34 -48.81 0 0 -22.47 56.54 0 0 -19.94 -81.53 0 0 104.16zm138.96 -104.16l0 104.16 44.79 0c32.88,0 54.75,-20.83 54.75,-52.08 0.15,-30.2 -21.57,-52.08 -54.75,-52.08l-44.79 0zm25 83.92l0 -63.68 19.79 0c17.7,0 29.9,12.95 29.75,31.84 0,18.3 -12.49,31.84 -29.75,31.84l-19.79 0zm92.1 20.24l81.53 0 0 -19.94 -56.54 0 0 -22.47 48.8 0 0 -19.34 -48.8 0 0 -22.47 56.54 0 0 -19.94 -81.53 0 0 104.16zm94.03 -12.35c4.46,3.12 19.63,13.98 47.76,13.98 27.82,0 44.48,-14.28 44.63,-33.33 0.3,-37.79 -66.95,-27.37 -66.95,-44.48 0,-4.62 3.87,-9.08 18,-9.08 19.19,0 30.05,5.8 34.82,9.23l10.41 -17.26c-6.1,-4.02 -19.04,-12.2 -45.23,-12.2 -29.61,0 -43,13.83 -43,29.6 0,37.5 66.96,27.23 66.96,45.98 0,7.29 -7.14,11.31 -18.6,11.31 -21.13,0 -33.18,-8.63 -37.79,-11.76l-11.01 18.01zm108.76 12.35l81.53 0 0 -19.94 -56.53 0 0 -22.47 48.8 0 0 -19.34 -48.8 0 0 -22.47 56.53 0 0 -19.94 -81.53 0 0 104.16zm100.28 -104.16l0 104.16 25 0 0 -64.73 46.71 64.73 26.04 0 0 -104.16 -25 0 0 65.02 -47.16 -65.02 -25.59 0zm113.67 0l47.76 104.16 26.64 0 47.75 -104.16 -26.48 0 -34.67 75.29 -34.52 -75.29 -26.48 0zm126.47 51.78c0,29.76 24.25,54.01 56.09,54.01 31.69,0 55.95,-23.8 56.09,-54.01 0.15,-29.76 -24.1,-53.41 -56.09,-53.41 -31.69,0 -56.09,23.21 -56.09,53.41zm24.99 0c0,-17.85 13.99,-31.98 31.1,-31.98 17.26,0 31.1,14.13 31.25,31.98 0,17.86 -13.99,32.74 -31.25,32.74 -17.11,0 -31.1,-14.88 -31.1,-32.74zm129.75 32.14l0 -83.91 -25 0 0 104.15 75.14 0 0 -20.23 -50.14 0 0 -0.01zm48.5 -83.91l47.76 104.15 26.63 0 47.76 -104.15 -26.48 0 -34.67 75.29 -34.52 -75.29 -26.48 0zm138.07 104.15l81.54 0 0 -19.94 -56.54 0 0 -22.47 48.8 0 0 -19.34 -48.8 0 0 -22.47 56.54 0 0 -19.93 -81.54 0 0 104.15zm125.28 0l0 -32.44 16.81 0 22.62 32.44 28.42 0 -25 -36.01c13.69,-5.06 21.72,-17.85 21.72,-32.28 0,-20.24 -15.02,-35.86 -37.93,-35.86l-51.64 0 0 104.15 25 0zm0 -83.91l24.1 0c10.72,0 16.52,6.54 16.52,15.62 0,8.48 -5.36,15.62 -16.52,15.62l-24.1 0 0 -31.24zm86.44 4.76c-1.04,3.86 -2.67,7.88 -4.61,10.56l10.86 5.2c5.81,-5.65 13.69,-18.44 13.54,-28.56 -0.14,-7.89 -6.69,-13.69 -14.43,-13.69 -8.18,0 -14.43,6.25 -14.43,13.69 0,5.8 3.72,10.86 9.07,12.8zm45.53 0c-1.04,3.86 -2.67,7.88 -4.61,10.56l10.86 5.2c5.81,-5.65 13.69,-18.44 13.54,-28.56 -0.14,-7.89 -6.69,-13.69 -14.43,-13.69 -8.18,0 -14.43,6.25 -14.43,13.69 0,5.8 3.72,10.86 9.07,12.8z"/>
   <path class="fil3" d="M1325.89 2761.71l33.43 0 10.95 -24.36 64.95 0 10.95 24.36 33.23 0 -60.05 -132.18 -33.22 0 -60.24 132.18zm76.85 -96.11l21.15 46.45 -42.29 0 21.14 -46.45zm93.65 -36.07l0 132.17 56.84 0c41.73,0 69.49,-26.43 69.49,-66.08 0.19,-38.34 -27.38,-66.09 -69.49,-66.09l-56.84 0zm31.73 106.49l0 -80.81 25.11 0c22.47,0 37.95,16.43 37.76,40.41 0,23.22 -15.86,40.4 -37.76,40.4l-25.11 0zm116.88 25.68l31.71 0 0 -81.57 41.55 64.2 41.91 -64.2 0 81.57 31.73 0 0 -132.17 -32.29 0 -41.35 62.31 -40.98 -62.31 -32.28 0 0 132.17zm173.71 -15.86c0,9.82 8.12,17.75 18.32,17.75 9.63,0 18.31,-8.12 18.31,-17.75 0,-9.06 -8.5,-17.37 -18.31,-17.37 -10.39,0 -18.32,7.93 -18.32,17.37zm0 -62.69c0,9.63 8.12,17.56 18.32,17.56 9.63,0 18.31,-8.12 18.31,-17.56 0,-9.25 -8.5,-17.56 -18.31,-17.56 -10.39,0 -18.32,8.12 -18.32,17.56zm104.98 -27.94c0,0 20.02,16.61 20.02,16.61 0,0 11.33,-18.69 30.59,-18.69 10.19,0 16.61,4.72 16.61,13.79 0.19,16.23 -21.52,35.87 -35.87,49.65l-25.31 24.36 0 20.77 91.96 0 0 -25.68 -47.77 0 11.52 -11.14c17.93,-17.18 37.19,-35.5 37.19,-59.29 0,-19.82 -16.61,-38.14 -47.01,-38.14 -26.25,0 -42.49,14.73 -51.93,27.76zm169.94 108.57c42.67,0 55.51,-33.04 55.51,-68.16 0,-33.99 -12.27,-68.17 -55.51,-68.17 -42.29,0 -55.51,33.05 -55.51,68.36 0,34.55 9.82,67.97 55.51,67.97l0 0zm0 -110.27c17.18,0 23.79,16.62 23.79,42.3 0,25.87 -6.42,41.91 -23.79,41.91 -17.18,0 -23.79,-16.8 -23.79,-41.91 0,-26.82 6.61,-42.3 23.79,-42.3zm71 1.7c0,0 20.01,16.61 20.01,16.61 0,0 11.33,-18.69 30.59,-18.69 10.2,0 16.62,4.72 16.62,13.79 0.18,16.23 -21.53,35.87 -35.88,49.65l-25.3 24.36 0 20.77 91.95 0 0 -25.68 -47.77 0 11.52 -11.14c17.94,-17.18 37.2,-35.5 37.2,-59.29 0,-19.82 -16.62,-38.14 -47.02,-38.14 -26.24,0 -42.48,14.73 -51.92,27.76zm108.76 2.83l15.86 20.77 17.56 -13.22 0 96.11 31.72 0 0 -132.17 -25.87 0 -39.27 28.51zm224.5 -45.51l-24.54 -0.19 -78.74 165.41 24.74 0 78.54 -165.22zm46.64 42.68c0,0 20.02,16.61 20.02,16.61 0,0 11.32,-18.69 30.59,-18.69 10.19,0 16.61,4.72 16.61,13.79 0.19,16.23 -21.52,35.87 -35.88,49.65l-25.3 24.36 0 20.77 91.96 0 0 -25.68 -47.77 0 11.51 -11.14c17.94,-17.18 37.2,-35.5 37.2,-59.29 0,-19.82 -16.61,-38.14 -47.01,-38.14 -26.25,0 -42.49,14.73 -51.93,27.76zm169.94 108.57c42.67,0 55.51,-33.04 55.51,-68.16 0,-33.99 -12.27,-68.17 -55.51,-68.17 -42.3,0 -55.51,33.05 -55.51,68.36 0,34.55 9.82,67.97 55.51,67.97l0 0zm0 -110.27c17.18,0 23.79,16.62 23.79,42.3 0,25.87 -6.42,41.91 -23.79,41.91 -17.18,0 -23.79,-16.8 -23.79,-41.91 0,-26.82 6.61,-42.3 23.79,-42.3zm70.99 1.7c0,0 20.02,16.61 20.02,16.61 0,0 11.33,-18.69 30.59,-18.69 10.2,0 16.61,4.72 16.61,13.79 0.19,16.23 -21.52,35.87 -35.87,49.65l-25.3 24.36 0 20.77 91.95 0 0 -25.68 -47.77 0 11.52 -11.14c17.94,-17.18 37.2,-35.5 37.2,-59.29 0,-19.82 -16.62,-38.14 -47.02,-38.14 -26.25,0 -42.49,14.73 -51.93,27.76zm111.41 80.62l68.73 0 0 25.87 31.72 0 0 -25.87 11.71 0 0 -25.68 -11.71 0 0 -80.62 -29.07 0 -71.38 85.73 0 20.57zm38.33 -25.68l30.4 -37.95 0 37.95 -30.4 0z"/>
   <path class="fil5" d="M184.44 1278.14c416.13,-323.57 863.91,-343.31 1350.51,9.69 348.05,-283.9 913.62,-315.6 1268.13,-7.49 476.91,-352.77 930.78,-329.53 1365.39,8.37 -298.27,-394.84 -890.95,-543.69 -1360.1,-151.53 -351.15,-307.45 -925.38,-312.75 -1269.47,0 -320.1,-306.91 -968.57,-323.98 -1354.47,140.96l0.01 0z"/>
   <path class="fil5" d="M3191.5 468.54c-3.08,3.93 -7.78,10.32 -13.54,16.74 -5.76,6.42 -12.59,12.89 -18.83,17.66 -6.24,4.77 -11.89,7.85 -19.42,10.42 -7.52,2.57 -16.92,4.63 -26.32,4.4 -9.4,-0.21 -18.79,-2.71 -27.09,-7.74 -8.29,-5.03 -15.49,-12.59 -21.88,-21.44 -6.38,-8.84 -11.96,-18.97 -14.97,-25.18 -3.01,-6.2 -3.45,-8.48 -3.67,-9.61 -0.22,-1.14 -0.22,-1.14 -0.22,-1.14 0,0 0,0 -2.39,-0.3 -2.39,-0.29 -7.16,-0.88 -12.34,-3.63 -5.17,-2.75 -10.75,-7.67 -15.52,-14.32 -4.77,-6.64 -8.74,-15.01 -12.04,-25 -3.3,-9.98 -5.95,-21.58 -6.65,-33.21 -0.69,-11.64 0.55,-23.31 3.16,-33.15 2.61,-9.84 6.57,-17.84 12.15,-24.23 5.58,-6.38 12.78,-11.15 17.36,-13.91 4.59,-2.75 6.58,-3.49 7.57,-3.85 0.99,-0.37 0.99,-0.37 0.99,-0.37 0,0 0,0 -0.22,-3.52 -0.22,-3.53 -0.66,-10.57 0.33,-16.92 0.99,-6.35 3.41,-12.01 8.29,-17.81 4.88,-5.8 12.23,-11.74 22.8,-16.88 10.57,-5.14 24.37,-9.48 35.82,-12.26 11.46,-2.79 20.56,-4.04 27.94,-4.45 7.38,-0.4 13.03,0.04 18.28,0.92 5.25,0.88 10.09,2.2 13.51,3.41 3.41,1.22 5.39,2.32 6.38,2.87 1,0.55 1,0.55 1,0.55 0,0 0,0 0.91,-1.32 0.92,-1.32 2.76,-3.97 7.05,-6.09 4.3,-2.13 11.05,-3.75 17.59,-3.82 6.53,-0.08 12.84,1.39 20.92,5.39 8.07,4 17.91,10.54 27.79,19.24 9.87,8.7 19.78,19.56 25.76,27.67 5.99,8.12 8.04,13.48 8.96,18.21 0.92,4.74 0.7,8.85 0,12.08 -0.7,3.23 -1.87,5.58 -3.01,7.34 -1.14,1.76 -2.24,2.94 -2.79,3.52 -0.55,0.59 -0.55,0.59 -0.55,0.59 0,0 0,0 3.08,1.73 3.09,1.72 9.26,5.17 14.32,10.46 5.07,5.28 9.03,12.41 11.86,19.34 2.82,6.94 4.51,13.69 5.5,21.14 0.99,7.46 1.29,15.61 -0.22,25.37 -1.5,9.77 -4.81,21.15 -8.7,30.32 -3.89,9.18 -8.37,16.15 -13.1,22.03 -4.74,5.87 -9.73,10.64 -14.1,13.69 -4.37,3.05 -8.11,4.37 -12.04,5.1 -3.92,0.74 -8.04,0.88 -12.08,0.33 -4.03,-0.55 -8,-1.8 -12,-3.38 -4,-1.57 -8.04,-3.48 -10.79,-4.84 -2.75,-1.36 -4.22,-2.17 -4.96,-2.57l-0.85 -0.47 1.94 5.49c9.32,26.65 25.77,76.57 40.89,133.61 15.12,57.05 28.93,121.21 37.59,170.69 8.66,49.48 12.18,84.28 13.95,101.68 1.76,17.4 1.76,17.4 1.76,17.4 0,0 0,0 -3.09,0.37 -3.08,0.36 -9.24,1.1 -23.56,3.74 -14.32,2.64 -36.78,7.2 -48.01,9.47 -11.23,2.28 -11.23,2.28 -11.23,2.28 0,0 0,0 -0.08,-13 -0.07,-12.99 -0.22,-38.98 -2.28,-82 -2.05,-43.02 -6.02,-103.07 -10.13,-153.07 -4.11,-49.99 -8.37,-89.93 -13.29,-122.97 -4.06,-27.3 -8.58,-49.89 -11.43,-65.32 -0.62,0.72 -1.29,1.55 -2.06,2.52z"/>
   <path class="fil5" d="M3633.6 906.71c-17.95,-5.89 -35.9,-11.79 -53.85,-17.68 14.44,-81.95 55.38,-162.1 103.56,-243.86 -1.28,0.27 -2.66,0.58 -4.16,0.91 -4.21,0.94 -9.3,2.08 -15.1,1.27 -5.79,-0.8 -12.29,-3.55 -16.51,-7.8 -4.22,-4.25 -6.16,-10.02 -7.37,-15.41 -1.2,-5.39 -1.67,-10.41 -1.91,-15.64 -0.23,-5.22 -0.23,-10.65 0.44,-16.07 0.67,-5.43 2.01,-10.85 4.35,-16.38 2.35,-5.53 5.7,-11.15 11.69,-15.94 6,-4.79 14.64,-8.74 18.96,-10.72 4.31,-1.97 4.31,-1.97 4.31,-1.97 0,0 0,0 -0.3,-0.81 -0.3,-0.8 -0.9,-2.41 -1.2,-4.35 -0.3,-1.94 -0.3,-4.22 1.01,-7.21 1.3,-2.97 3.91,-6.65 8.27,-10.37 4.35,-3.72 10.44,-7.47 17.28,-10.92 6.83,-3.45 14.4,-6.6 22.13,-8.74 7.74,-2.15 15.65,-3.29 21.44,-2.92 5.79,0.37 9.48,2.25 12.26,4.46 2.78,2.21 4.65,4.75 5.59,6.03 0.94,1.27 0.94,1.27 0.94,1.27 0,0 0,0 0.46,-0.24 0.47,-0.23 1.41,-0.7 4.26,-0.97 2.84,-0.27 7.6,-0.33 13.43,0.54 5.83,0.87 12.72,2.68 20.76,6.16 8.04,3.48 17.22,8.64 24.15,13.8 6.93,5.15 11.62,10.31 14.47,15.94 2.84,5.63 3.85,11.72 3.18,16.61 -0.67,4.89 -3.02,8.58 -4.19,10.42 -1.17,1.84 -1.17,1.84 -0.37,2.21 0.81,0.37 2.41,1.1 4.16,2.38 1.74,1.27 3.61,3.08 6.13,7.16 2.51,4.09 5.66,10.45 6.39,17.28 0.74,6.83 -0.94,14.14 -2.74,20.13 -1.81,6 -3.76,10.69 -6.7,15.74 -2.95,5.06 -6.9,10.49 -10.85,15.21 -3.95,4.72 -7.91,8.74 -12.16,11.62 -4.25,2.88 -8.81,4.62 -12.56,5.26 -3.75,0.63 -6.7,0.16 -8.17,-0.07 -1.48,-0.24 -1.48,-0.24 -1.48,-0.24 0,0 0,0 -0.46,0.34 -0.47,0.34 -1.41,1 -4.16,3.95 -2.74,2.95 -7.3,8.17 -12.22,12.42 -4.92,4.26 -10.22,7.54 -16.11,9.72 -5.9,2.17 -12.39,3.25 -17.55,3.62 -5.16,0.36 -8.98,0.03 -13.43,-1.31 -4.45,-1.34 -9.54,-3.68 -14.77,-7.87 -5.22,-4.19 -10.58,-10.22 -15.17,-18.32 -4.58,-8.09 -8.39,-18.24 -10.4,-23.84 -36.66,69.79 -56.27,157.24 -65.73,255.2z"/>
   <path class="fil5" d="M3503.89 540.94c2.43,3.1 6.15,8.15 10.71,13.23 4.56,5.08 9.96,10.2 14.89,13.97 4.94,3.78 9.41,6.21 15.36,8.25 5.95,2.03 13.39,3.65 20.82,3.48 7.44,-0.17 14.87,-2.15 21.43,-6.13 6.56,-3.97 12.25,-9.95 17.3,-16.95 5.06,-7 9.47,-15.01 11.85,-19.92 2.38,-4.9 2.73,-6.71 2.91,-7.61 0.17,-0.9 0.17,-0.9 0.17,-0.9 0,0 0,0 1.89,-0.23 1.88,-0.23 5.66,-0.7 9.75,-2.87 4.1,-2.18 8.51,-6.07 12.28,-11.33 3.78,-5.25 6.92,-11.88 9.53,-19.77 2.61,-7.9 4.7,-17.07 5.25,-26.28 0.56,-9.2 -0.43,-18.44 -2.49,-26.22 -2.07,-7.78 -5.2,-14.11 -9.61,-19.16 -4.42,-5.05 -10.11,-8.83 -13.74,-11.01 -3.63,-2.17 -5.2,-2.76 -5.98,-3.05 -0.78,-0.29 -0.78,-0.29 -0.78,-0.29 0,0 0,0 0.17,-2.78 0.17,-2.79 0.52,-8.36 -0.26,-13.39 -0.79,-5.02 -2.7,-9.49 -6.56,-14.08 -3.87,-4.59 -9.67,-9.29 -18.03,-13.36 -8.36,-4.06 -19.28,-7.49 -28.34,-9.69 -9.06,-2.21 -16.26,-3.2 -22.1,-3.52 -5.83,-0.32 -10.31,0.03 -14.46,0.73 -4.15,0.7 -7.98,1.74 -10.68,2.7 -2.7,0.96 -4.27,1.83 -5.05,2.26 -0.79,0.44 -0.79,0.44 -0.79,0.44 0,0 0,0 -0.72,-1.05 -0.73,-1.04 -2.19,-3.13 -5.58,-4.81 -3.4,-1.69 -8.74,-2.97 -13.91,-3.03 -5.17,-0.05 -10.16,1.11 -16.55,4.27 -6.39,3.17 -14.17,8.33 -21.98,15.22 -7.81,6.88 -15.65,15.47 -20.38,21.89 -4.73,6.42 -6.36,10.66 -7.08,14.4 -0.73,3.75 -0.56,7 -0.01,9.56 0.55,2.55 1.48,4.41 2.39,5.8 0.89,1.4 1.77,2.32 2.2,2.79 0.44,0.46 0.44,0.46 0.44,0.46 0,0 0,0 -2.44,1.37 -2.44,1.36 -7.32,4.09 -11.32,8.27 -4.01,4.18 -7.15,9.82 -9.39,15.3 -2.23,5.49 -3.56,10.83 -4.35,16.73 -0.78,5.89 -1.02,12.34 0.18,20.06 1.19,7.73 3.8,16.73 6.88,23.99 3.07,7.25 6.62,12.77 10.36,17.42 3.75,4.65 7.7,8.42 11.15,10.83 3.46,2.41 6.42,3.45 9.53,4.03 3.1,0.58 6.35,0.7 9.55,0.26 3.19,-0.43 6.33,-1.42 9.49,-2.67 3.17,-1.24 6.36,-2.75 8.54,-3.83 2.18,-1.07 3.34,-1.71 3.92,-2.03l0.68 -0.37 -1.54 4.34c-7.37,21.08 -20.38,60.57 -32.34,105.69 -11.97,45.12 -22.88,95.87 -29.74,135.01 -6.85,39.14 -9.64,66.67 -11.03,80.43 -1.39,13.76 -1.39,13.76 -1.39,13.76 0,0 0,0 2.44,0.29 2.44,0.29 7.31,0.87 18.64,2.96 11.32,2.09 29.09,5.7 37.97,7.49 8.89,1.81 8.89,1.81 8.89,1.81 0,0 0,0 0.06,-10.29 0.06,-10.27 0.17,-30.83 1.8,-64.85 1.62,-34.03 4.76,-81.54 8.01,-121.08 3.25,-39.54 6.62,-71.14 10.51,-97.27 3.22,-21.6 6.79,-39.46 9.05,-51.67 0.49,0.57 1.02,1.22 1.63,2l0 0z"/>
   <path class="fil1" d="M1188.63 916.72l0.5 -1.58 33.47 -196.02 -130.38 -102.63 -145.8 80.61 1.32 23.34 -118.49 -68.27 -114.97 89.42 6.61 37.88 -96.46 -39.2 -79.29 80.16 36.72 132.55c21.74,-10.04 43.99,-19.18 66.69,-27.36l-22.19 -73.6c-1.47,-4.87 1.32,-10.06 6.19,-11.52l41.33 -12.46c4.87,-1.47 10.05,1.31 11.53,6.18l21.9 72.66c40.18,-11.19 81.56,-19.44 123.93,-24.53l-10.34 -83.3c-0.62,-5.05 2.99,-9.69 8.05,-10.32l42.83 -5.31c5.05,-0.63 9.69,2.99 10.32,8.04l10.65 85.8c12.89,-0.6 25.86,-0.9 38.9,-0.9 32.3,0 64.16,1.84 95.5,5.42l7.85 -108.81c0.53,-7.37 6.99,-13 14.36,-12.51l62.54 4.11c7.37,0.49 12.96,6.91 12.43,14.27l-8.51 117.95c24.7,5.57 48.99,12.23 72.81,19.93l0 0z"/>
   <path class="fil5" d="M1527.98 799.71l0 0zm-42.85 -4.52l0 0zm-58.63 -51.87l0.67 0.67c-0.04,-0.04 -0.9,-0.44 -0.67,-0.67zm58.63 -15.78l-2.25 -2.26 2.25 2.26zm-2.25 -2.26l0 0zm-20.3 -374.37l0.67 0.67c-0.04,-0.04 -0.89,-0.45 -0.67,-0.67zm-24.81 -92.47l0.68 0.67c-0.05,-0.04 -0.9,-0.44 -0.68,-0.67zm47.36 536.75c7.25,4.85 13.82,6.32 19.83,11.75 6.44,5.81 9.59,11.59 17.44,16.39l17.38 14.19c6.21,6.28 10.66,11.54 22.03,11.8 -3.66,-15.72 -25.76,-34.37 -33.82,-49.62l6.76 0c-3.81,-7.2 -46.44,-60.28 -49.62,-72.17 2.68,1.79 8.5,7.53 10.43,8.08 20.76,5.98 -6.07,-29.32 -8.75,-32.31 -7.62,-8.5 -32.68,-32.84 -35.5,-43.42 10.51,5.56 20.82,13.53 36.08,13.53 -2.13,-7.97 -2.15,-4.99 -7,-11.04l-45.42 -51.56c-5.54,-5.56 -13.44,-14.79 -17.49,-20.85 6.4,1.71 8.94,4.96 13.84,8.72 5.58,4.28 51.29,33.4 40.89,11.54 -8.6,-18.08 -38.92,-32.7 -50.22,-49.58 9.5,2.22 14.79,7.07 24.81,2.26 -2.25,-9.66 -6.63,-10.74 -13.5,-15.82 -14.91,-11.02 -41.13,-29.11 -58.67,-33.8l0 -4.51c0.49,-0.17 1.22,-1.12 1.41,-0.68l29.37 -13.64c0.38,-0.28 0.86,-0.74 1.24,-1.02 0.37,-0.28 0.89,-0.69 1.28,-0.97 8.92,-6.55 6.25,-7.44 11.43,-15.64 0.25,-0.4 0.65,-0.93 0.94,-1.31 5.16,-6.7 10.89,-7.1 14.86,-14.46 1.39,-2.57 1.39,-3.94 3.63,-7.64l19.28 -39.36c-0.56,-5 -5.75,-9.85 -9.24,-13.31l-6.54 -6.98c17.52,4.08 18.02,1.31 33.83,0 -0.74,-8.8 -3.74,-10.03 -9.81,-15 -0.35,-0.29 -0.93,-0.77 -1.24,-1.02 -0.32,-0.25 -0.99,-0.81 -1.24,-1.01 -0.26,-0.21 -0.84,-0.67 -1.25,-1.02 15.32,0 18.38,0.58 24.81,-9.02 -4.57,-6.23 -14.12,-8.16 -20.3,-13.53 18.61,-4.33 19.06,-1.36 27.07,-18.04 -5.33,-1.24 -11.68,-2.92 -16.27,-4.03l-10.65 -2.88c-0.5,-0.18 -1.17,-0.48 -1.6,-0.66l-3.06 -1.45c18.42,0 32.27,-3.75 36.09,-18.04 -16.07,-1.34 -24.99,-4.51 -45.11,-4.51l0 -2.26c28.51,0 71.16,-24.22 34.05,-25.03 -5.77,-0.12 -12.35,0.22 -18.26,0.22 14.35,-9.97 39.65,-11.17 45.1,-31.57 -25.66,0 -47.77,11.5 -72.16,13.53l9.74 -6.04c64.02,-32.96 92.28,-72.48 4.53,-31.56 -6.63,3.09 -15.59,8.73 -21.33,10.45 -9.2,2.77 -11.8,-2.88 -24.52,0.09 10.51,-15.7 40.92,-26.8 36.09,-49.62 -8.67,2.02 -7.3,2.03 -13.02,7.28 -22.77,20.93 -46.44,40.26 -67.64,63.17 -11.44,12.37 -17.83,23.37 -31.83,33.57 -8.15,5.93 -14.62,14.25 -18.58,24.27 -5.8,14.63 -6.51,15.67 -15.48,27.37 -3.82,4.97 -6.2,6.86 -10.36,12.19 -39.22,50.19 -49.16,48.68 -84.92,13.09 -43.32,-43.12 -80.45,-16.43 -70.77,12.01 3.15,9.24 13.4,16.7 20.43,22.54 2.8,2.32 -0.32,-0.29 2.48,2.03 8.18,6.75 14.24,12.8 16.8,23.79 -23.3,5.43 -29.25,2.36 -58.64,2.25 -24.09,-0.09 -37.26,3 -59.17,6.24l-44.42 2.94c-8.74,0.67 -6.48,1.95 -16,2.19 -5.42,0.14 -22.48,-2.39 -27.87,-3.72 -11.31,-2.78 -16.23,-7.84 -23.94,-9.9 2.03,8.7 2.84,11.28 11.28,13.54 -0.45,0.31 -1.27,0.09 -1.45,0.8 -0.78,2.98 -0.95,0.15 -2.6,1.91 -2.75,2.91 -0.67,-1.01 -2.72,4.05l27.07 15.79c-6.7,0 -12.56,-1.47 -16.17,2.14 -8.19,8.17 10.4,18.37 17.06,19.68 8.06,1.58 9.94,-0.92 17.15,-1.52 -4.08,7.7 -6.77,10.47 -6.77,22.55 12.97,6.86 25.18,6.31 38.34,0 0,12.85 -1.51,17.99 9.48,20.09 11.42,2.19 16.39,-2.74 22.1,-6.56 0,13.36 0.59,17.07 8.79,22.87 11.35,8.02 13.54,5.23 20.52,-4.83 2.69,11.55 7.91,19.27 20.3,20.3 1.45,-6.22 1.09,-5.08 4.51,-9.02 2.12,9.09 4.67,15.67 13.53,18.04 6.77,-4.96 6.77,-11.02 6.77,-22.55l11.9 19.67c6.35,4.83 10.09,1.73 16.76,5.9l9.28 5.17c13.53,3.15 9.39,7.53 40.82,5.22l24.63 -2.36c1.61,-0.37 -0.61,-0.47 4.67,-0.89l27.42 -5.3c0.23,-0.1 7.82,-5.27 9.55,-6.41l21.86 -11.98c9.93,20.69 21.49,80.01 40.44,92.62 10.52,7 4.52,-4.73 12.33,10.22 5.12,9.78 8.63,19.05 15.77,27.26 11.86,13.67 -0.77,-11.37 18.98,21.44 8.52,14.16 30.83,63.55 47.79,64.96 -0.67,-8.14 -2.81,-10.74 -4.51,-18.04 8.35,6.12 19.88,30.35 27.38,40.28 9.13,12.09 19.61,30.36 38.03,31.89 -0.98,-11.7 -6.47,-13.84 -9.03,-24.81z"/>
   <path class="fil2" d="M2923.83 772.86c3.23,-2.99 7.85,-3.52 11.95,-2.02 0.08,0.03 0.16,0.06 0.25,0.09 3.34,0.02 6.3,1.44 8.47,4.08 5.07,6.18 11.65,13.94 15.28,20.97 1.67,3.23 1.68,6.87 0.17,9.95 -0.09,2.54 -1.07,5.02 -2.91,7.05l-2.65 2.93 4.26 4.5 16.92 -11.02 7.5 -4.88 9.01 -5.92 8.28 -5.24 10.55 -6.77 6.36 -4.07 9.02 -5.74c1.12,-0.68 3.22,-1.7 4.26,-2.54 1.41,-1.64 3.07,-2.72 5.13,-3.35l2.5 -1.48c1.55,-0.94 3.12,-1.88 4.68,-2.82 0.18,-0.11 0.34,-0.2 0.54,-0.31l4.96 -2.63c2.36,-1.25 4.77,-1.61 7.39,-1.09 6.74,1.34 9,4.86 14,8.03 0.54,0.34 0.97,0.67 1.3,0.97 1.79,1.49 4.82,3.81 6.91,5.01 2.86,1.18 4.92,3.29 5.73,5.6 0.56,0.87 1.77,2 2.49,2.76 0.16,0.16 0.28,0.3 0.43,0.47l7.41 8.79c0.76,0.89 1.29,1.76 1.75,2.84l4.13 9.75 4.23 -2.53c2.37,-1.41 4.95,-1.9 7.52,-1.45l4.74 -1.84c1.38,-0.53 2.7,-0.78 4.09,-0.76 2.26,-0.22 4.68,-0.67 7.03,-1.09 2.51,-1.99 6.12,-3.17 10.64,-3.18 0.84,-0.01 1.79,0.09 2.62,-0.05 1.95,-0.32 3.8,-0.16 5.53,0.47 2.66,0.46 5.16,1.36 7.19,2.72 0.93,0.18 1.78,0.39 2.56,0.67 1.61,0.12 2.99,0.45 4.67,0.93 1.09,0.11 2.08,0.38 3.14,0.83 1.66,0.71 3.4,1.26 5.08,1.92 3.15,-0.73 6.56,-0.08 9.31,2.02l0.33 0.25c1.92,1.33 4.13,2.42 6.12,3.67 2.94,1.84 5.34,4.4 6.67,7.24 2.72,2.22 5.24,4.51 7.68,6.99 2.07,0.5 3.93,1.62 5.47,3.29l1.92 2.09c0.4,0.43 0.7,0.82 1.03,1.3l4.91 7.26c1.66,2.45 2.22,5.32 1.78,8.04 2.08,4.48 4.18,8.47 5.78,13.82 1.69,1.52 2.81,3.46 3.32,5.8l1.05 4.71c0.13,0.58 0.2,1.08 0.24,1.67l0.43 6.51c0.17,2.44 -0.43,4.74 -1.64,6.67 -0.08,0.16 -0.17,0.32 -0.27,0.48 -0.02,1.32 -0.02,2.66 -0.15,4.04 -0.03,0.28 -0.07,0.52 -0.11,0.8l-2.04 11.95c1.37,5.5 -1.02,10.06 -3.66,15.4 -1.54,3.12 -3.75,5.75 -6.37,7.33l-4.35 6.56c-0.5,0.74 -0.99,1.33 -1.64,1.94l-4.44 4.19c-0.64,2.63 -2.25,4.94 -4.66,6.54l-9.68 6.45c-2.26,1.51 -4.83,2.13 -7.35,1.85 -0.38,0.17 -0.79,0.32 -1.22,0.46l-11 3.43c-0.95,0.3 -1.83,0.46 -2.78,0.5 -0.44,0.05 -0.89,0.11 -1.34,0.18 -1.93,1.47 -4.38,2.48 -7.16,2.8 -3.31,0.38 -7.59,0.5 -10.91,0.24 -2.58,-0.2 -4.94,-0.96 -6.9,-2.16 -1.39,-0.05 -2.72,-0.37 -4.04,-0.97 -1.21,-0.28 -2.46,-0.41 -3.71,-0.76l-3.8 -1.03c-1.17,-0.11 -2.24,-0.39 -3.37,-0.89l-1.93 -0.85c-1.24,0.19 -2.53,0.19 -3.85,-0.01 -1,-0.15 -1.84,-0.39 -2.77,-0.78 -3.34,-1.44 -8.25,-3.81 -11.03,-6.03 -0.1,-0.08 -0.2,-0.17 -0.3,-0.25 -0.47,0.48 -0.94,0.95 -1.4,1.41l2.3 4.92c2.53,1.36 4.48,3.7 5.35,6.66l3.37 11.46c0.8,2.72 0.53,5.51 -0.59,7.89 1.68,2.15 2.5,4.88 2.25,7.79 -0.24,2.7 -1.03,4.52 -1.6,6.7 1.21,1.85 1.85,4.07 1.78,6.45 -0.16,5.29 -0.89,10.26 -2.64,15.28 -0.89,2.53 -2.58,4.54 -4.71,5.84 -1.78,4.9 -2.99,9.3 -5.96,13.69 0.17,3.25 -1.06,6.29 -3.53,8.6 -3.51,3.28 -4.86,6.1 -9.22,9.15 -1.98,1.39 -4.23,2.07 -6.47,2.05 -4.27,2.97 -8.56,5.37 -13.37,7.4 -1.38,1.78 -3.32,3.14 -5.64,3.84l-11.46 3.43c-3.39,1.01 -6.9,0.36 -9.6,-1.54 -3.12,0.12 -6.28,0.02 -8.65,-0.28 -1.87,-0.04 -3.23,-0.14 -4.9,-0.56l-0.12 -0.02c-2.44,1.43 -5.39,1.87 -8.33,1.13 -1.87,-0.47 -3.74,-0.9 -5.6,-1.41 -1.39,-0.37 -2.75,-0.99 -4.09,-1.37 -3.72,-0.41 -6.86,-2.58 -8.56,-5.8 -4.08,-1.82 -8.4,-4.3 -12.01,-6.48 -2.93,0.14 -5.99,-0.83 -8.75,-2.79 -3.11,-2.2 -6.46,-4.95 -9.16,-7.62 -1.73,-1.7 -2.81,-3.8 -3.19,-6.02l-4.31 -4.88c-0.16,-0.18 -0.29,-0.34 -0.44,-0.53l-2.65 -3.4 -6.86 3.69c-0.23,0.13 -0.43,0.22 -0.67,0.33 -0.72,0.33 -2.27,1.03 -2.87,1.57 -1.65,1.49 -3.49,2.39 -5.58,2.73 -1.48,0.63 -3.3,1.75 -5.01,2.82l0.26 1.21c1.79,5.31 3.26,11.16 1.45,15.63l1.15 5.6c0.3,1.43 0.32,2.74 0.07,4.11 0.01,1.41 0.12,2.66 0.23,3.87 2.29,2.68 3.13,6.1 2.33,9.6 -0.37,1.76 -0.72,4.56 -0.79,6.42 0.07,1.36 -0.1,2.63 -0.5,3.86 -0.43,2.93 -2.03,5.53 -4.59,7.34 -0.31,0.22 -0.63,0.43 -0.95,0.63 -0.03,0.09 -0.06,0.18 -0.08,0.26 -0.3,2.08 -1.16,3.91 -2.59,5.57 -0.38,0.43 -0.61,0.81 -0.89,1.31 -1.61,2.87 -3.2,5.11 -5.07,7.25 -0.37,3.22 -1.93,5.87 -4.58,7.78l-4.19 3c-0.44,0.32 -0.84,0.56 -1.33,0.82l-5.67 2.96c-3.06,1.6 -6.46,1.71 -9.47,0.42 -5.4,1.29 -10.19,1.6 -15.59,1.39 -2.26,1.57 -5.04,2.24 -7.96,1.81 -4.41,-0.65 -8.17,-1.96 -12.41,-3.09 -3.08,-0.82 -5.45,-2.7 -6.92,-5.45 -4.13,-1.78 -8.08,-3.56 -11.96,-5.81 -2.61,0.29 -5.31,-0.37 -7.62,-1.99l-6 -4.22c-0.49,-0.35 -0.89,-0.67 -1.21,-0.98 -1.56,-1.44 -3.35,-2.76 -4.64,-4.74 -0.69,-1.12 -1.22,-2.28 -1.58,-3.45 -0.5,-0.4 -0.98,-0.86 -1.44,-1.37l-7.61 -8.5c-2.5,-0.28 -4.77,-1.4 -6.63,-3.3l-5.99 -6.15c-0.49,-0.5 -0.86,-0.96 -1.25,-1.53l-1.92 -2.84c-1.73,-2.55 -2.3,-5.35 -1.72,-8.37 0.09,-0.44 0.19,-0.87 0.32,-1.29 -1.23,-2.48 -2.75,-5.71 -3.72,-6.76 -0.91,-0.99 -1.61,-2.05 -2.1,-3.2 -2.01,-1.17 -3.62,-2.99 -4.6,-5.3l-1.78 -4.22c-0.15,-0.36 -0.27,-0.67 -0.38,-1.04l-2.09 -6.73c-0.83,-2.66 -0.63,-5.4 0.41,-7.77 -1.04,-4.4 -1.83,-9.23 -2.17,-13.69 -1.69,-1.93 -2.61,-4.37 -2.65,-7.09 0,-0.03 0,-0.06 0,-0.09 -0.11,-0.1 -0.22,-0.2 -0.33,-0.3 -5.23,-4.98 -8.85,-7.56 -12.85,-14.12 -0.62,-1.02 -1.02,-1.97 -1.31,-3.13 -0.98,-3.98 -1.18,-5.81 0.03,-9.75 0.04,-0.3 0.09,-0.61 0.15,-0.91 0.24,-1.28 0.68,-2.44 1.39,-3.62l5.18 -8.65c0.42,-0.71 0.85,-1.28 1.42,-1.89 2.75,-2.95 5.39,-7.21 7.81,-10.52 4.6,-6.28 9.52,-12.01 15.26,-17.29 0.12,-0.1 0.23,-0.2 0.34,-0.3l-13.47 -24.2 -0.76 -0.97c-1.16,-1.5 -1.88,-3.08 -2.19,-4.86 -0.13,-0.3 -0.32,-0.65 -0.51,-0.98 -1.17,-0.61 -2.22,-1.28 -3.36,-2.24 -0.53,-0.45 -1,-0.92 -1.47,-1.38 -1.55,-0.87 -2.82,-2.08 -3.84,-3.67l-0.98 -1.54c-2.86,-3.89 -5.76,-7.79 -7.24,-12.47 -1.44,-4.56 -0.87,-7.38 0.5,-11.54 0.15,-2.58 1.13,-4.89 2.84,-6.74l10.2 -18.96c0.64,-1.19 1.39,-2.16 2.36,-3.02 0.88,-1.11 2.18,-3.27 2.71,-4.39 0.46,-0.99 0.96,-1.78 1.67,-2.61 2.09,-2.43 3.9,-5.95 5.63,-8.32l4.67 -6.92c-1.84,-3 -3.17,-5.98 -3.37,-9.77 -0.23,-4.57 0.74,-6.66 2.88,-10.44 0.89,-2.01 2.11,-3.46 3.93,-4.69l2.64 -1.79c1.82,-1.22 3.68,-1.83 5.87,-1.9 6.6,-0.22 9.73,-0.88 15.45,4.37 0.51,0.47 1,0.98 1.48,1.52l13 -8.99c0.84,-0.58 1.68,-1.02 2.57,-1.33l10.08 -5.56c0.17,-0.1 0.32,-0.18 0.49,-0.26 1.25,-0.61 3.5,-1.49 4.69,-2.31 1.04,-1.06 2.17,-1.82 3.57,-2.42l6.97 -2.95c2.28,-1.05 4.57,-2.08 6.88,-3.06 4.64,-1.98 9.33,-3.78 14.1,-5.39 10.52,-3.56 15.21,-6 24.04,2.91 1.37,1.38 2.56,2.82 3.77,4.27l7.74 -4.21zm-87.13 114.34l-4.74 -0.54c-0.42,0.32 -0.84,0.65 -1.18,0.91 -7.66,5.77 -16.83,8.66 -24.36,0.25 -1.42,-1.59 -2.71,-3.29 -3.93,-5.06l-0.02 0.03 11.22 19.95c0.14,0.24 0.25,0.45 0.36,0.69 0.54,1.13 1.53,3.5 2.34,4.45 0.98,0.94 1.74,1.95 2.28,3.06 5.27,-2.87 10.82,-5.49 15.56,-8.96 1.46,-1.07 3.1,-1.74 4.77,-2.02 -0.51,-0.78 -1.01,-1.57 -1.51,-2.35 -1.78,-2.83 -2.2,-5.95 -1.24,-9.15 0.13,-0.43 0.28,-0.85 0.45,-1.26zm28.72 -60.1c-5.12,2.86 -11.04,6.03 -16.4,9.42l7.99 11.85c0.78,1.19 1.55,2.37 2.33,3.55 0.29,-2.83 1.66,-5.54 4.03,-7.48 1.45,-1.19 4.41,-3.01 6.82,-4.69l-4.77 -12.65zm29.11 -15.74c3.19,4.66 8.69,16.42 12.24,20.18 0.29,0.13 0.57,0.27 0.85,0.43l7.49 -5.15c2.16,-1.48 4.67,-2.1 7.11,-1.92l-11.09 -11.73 -6.53 -6.78 -4.46 2.1 -5.61 2.87z"/>
   <path class="fil5" d="M3095.7 1012.89c-4.03,-6 -16.61,-5.65 -23.56,-0.81 1.99,1.32 8.4,1.32 11.61,1.25 3.38,-0.07 9.23,0.03 11.95,-0.44zm-286.33 -205.49l-2.63 1.79c-0.95,2.17 -2.07,2.52 -1.93,5.33 0.11,2.14 1.43,4.12 2.85,6.26l3.24 4.9 -1.24 1.67c-0.9,0.96 -0.96,1 -1.87,1.52l-6.17 9.14c-2.13,2.93 -4.21,6.78 -6.41,9.34 -0.78,1.71 -3.91,6.96 -5.39,8.05l-11.13 20.71 -0.59 0.45c0.05,2.98 -2.05,4.13 -1,7.45 1,3.17 3.74,6.71 5.8,9.51l1.17 1.83c1.24,0.42 1.98,1.59 3.13,2.56 1.36,1.16 2.41,1.26 3.22,1.82 1.56,1.08 4.37,6.13 4.43,7.91l1.29 1.65 18.1 32.53c0.09,-0.12 0.96,-1.78 1.07,-1.87 1.13,-0.9 0.43,-0.7 1.37,0.09 -0.39,0.75 -7.74,6.82 -9.19,8.14 -12.09,11.11 -17.23,21.6 -22.47,27.21l-5.18 8.65c-0.01,0.14 -0.1,0.24 -0.03,0.42 0.06,0.18 -0.03,0.33 -0.05,0.41 -0.16,0.7 -0.06,0.37 -0.32,1.08 -0.6,1.91 -0.47,1.69 0.09,3.98 3.52,5.76 6.71,7.74 11.02,11.84l1.71 1.01 1.99 -2.68c0.13,-1.14 -0.11,-0.15 0.4,-1.52l2.25 -4.23 -5.94 -6.43c2.97,-4.64 7.24,-10.82 12.73,-12.9 3.24,-1.23 2.49,-0.29 4.37,2.25 -6.63,6.6 -8.57,14.56 -10.24,20.9 -1.89,0.31 -0.84,-0.28 -2.73,0.47 0.27,2.06 0.16,0.41 -0.41,1.56 0.52,1.53 -0.1,2.37 -0.17,4.82 -0.05,1.78 -0.19,3.31 -0.17,5.05 1.8,1.2 1.06,-0.13 2.52,1.21 -0.31,5.92 1.34,16.22 3.66,23.04l-2.27 1.17 2.09 6.73 1.79 4.21 2.62 0.04c0.75,1.58 1.98,3.85 2,5.25 2.58,2.79 4.19,7.39 6.29,10.85 2.36,3.88 5,7.48 7.5,11.27l-5.14 -6.07 -2.5 1.68 1.93 2.84 5.99 6.15c1.42,-0.17 1.12,-0.35 2.59,-1.22l11.97 13.37c1.11,0.27 4.08,2.6 4.26,3.76 0.35,2.33 -1.52,0.28 -0.08,2.59 0.03,0.05 2.5,2.22 2.8,2.5l6 4.22 2.02 -1.66c6.87,5.09 14.18,7.73 20.72,10.57 0.27,1.95 -0.46,1.12 0.23,2.69 3.82,1.02 6.97,2.22 11.16,2.84 0.89,-1.4 0.43,-0.98 1.01,-2.31 17.48,1.54 20.52,-1.81 22.58,-1.78 1.7,0.02 2.48,1.8 2.3,1.28 -0.03,-0.07 0.19,0.2 0.34,0.33l5.67 -2.96 4.19 -3c0.14,-1.45 -0.08,-0.86 -0.91,-2.44 7.58,-7.04 6.24,-8.35 9.51,-12.13 0.02,-1.13 2.04,-5.82 2.41,-7.56 2.46,-0.88 1,0.86 3.2,-0.7 -0.13,-1.05 -0.4,-0.46 0.4,-1.66 -0.12,-1.17 0.64,-7.5 1.05,-9.31 -1.85,-1.8 -0.44,0.1 -2.69,-1.37 0.98,-3.38 -0.61,-9.18 0.02,-11.53l-2.43 -11.86c2.18,-1.03 3.31,1 -0.01,-8.63l-0.68 -3.16c-1.01,-0.53 -0.48,-0.3 -1.45,-0.39l-1.6 0.07 -1.79 -4.4 7.71 -4.28c2.57,-1.46 9.15,-5.83 11.42,-5.85 1.6,-1.44 3.76,-2.55 5.73,-3.44l12.26 -6.6 3.94 -0.21 7.38 9.48 7.68 8.69c-0.24,0.76 -0.02,0.11 -0.24,0.69 -0.13,0.35 -0.18,0.21 -0.45,0.98 2.03,2.01 5.55,4.89 7.75,6.44 2.95,2.09 1.43,-0.86 3.95,-0.2 0,0 15.32,9.76 19.95,10.11 0.56,2.28 -0.32,0.99 0.27,3.19 1.58,0.07 4.02,1.23 5.71,1.69 2.08,0.56 3.69,0.92 5.43,1.36 0.82,-1.32 0.32,-1.19 1.22,-2.15l6.73 0.89c1.87,0.58 2.17,0.26 3.75,0.43 3.02,0.37 9.33,0.34 12.85,-0.32l1.12 2.55 11.46 -3.44c0,-0.13 0.01,-0.61 0.02,-0.73 0.03,-0.83 -0.1,-0.22 0.08,-1.01 7.73,-2.68 13.42,-5.89 20.14,-11.25 1.66,0.43 0.63,0.31 2.06,1.25 3.18,-2.22 5.24,-5.59 7.99,-8.16 -2.92,-1.06 -16.17,1.14 -20.57,-1.41 6.22,-4.44 15.79,-4.66 19.62,-1.98 5.82,-5.5 8.21,-16.7 9.95,-20.38 1.69,-0.32 0.54,-0.33 2.3,0.1 1.33,-3.8 1.89,-7.52 2.02,-11.94l-0.77 -0.29c-0.09,-0.03 -0.26,-0.09 -0.35,-0.12l-1.11 -0.26c0.16,-1.9 0.06,-4.87 0.44,-6.71 0.45,-2.09 1.46,-4.36 1.64,-6.4 -4.49,-2.43 -0.89,-0.89 -3.78,-10.42l2.54 -1.15 -3.38 -11.45 -2.36 0.02 -5.85 -12.53c-0.18,0.64 -0.14,0.45 -0.25,1.19 -0.42,2.94 0.08,6.01 -1.16,11.33 -0.77,3.31 -2.01,8.27 -3.96,11.58 -3.47,-6.44 0.68,-20.37 2.65,-25.86 0.36,-1.01 0.61,-2.51 0.71,-2.75 0.69,-1.6 3.17,-3.44 4.66,-4.87 3.09,-2.98 6.96,-7.15 10.24,-9.66 1.39,0.6 3.24,1.95 4.67,3.07 4.25,3.35 -1.5,0.8 2.36,3.89 1.55,1.24 6.73,3.74 8.47,4.49 2.12,0.32 0.02,-1.92 4.07,-0.32l4.55 2c0.37,0 -0.22,-0.08 0.87,0.08l4.74 1.29c1.86,0.51 3.91,0.57 5.34,1.33 1.09,-0.15 3.45,-0.45 4.7,0.3 2.13,1.27 -1.13,1.62 2.55,1.9 2.06,0.16 6.4,0.06 8.78,-0.2 4.38,-0.51 -1.79,-1.54 4.32,-2.38 1.26,-0.17 4.42,-0.68 4.91,-0.67l11 -3.43c0.88,-0.7 2.01,-1.63 3.25,-1.88 2.25,-0.45 0.1,-0.55 2.47,0.94l9.68 -6.45 -0.33 -2.06 7.96 -7.5 6.3 -9.5c2.03,-2.79 1.14,2.06 3.71,-3.16 4.08,-8.25 2.95,-7.27 2.18,-9.44l2.53 -14.85c0.47,-4.91 -0.35,-7.37 1.17,-8.84 0.2,-0.2 0.76,0.77 0.46,-0.35 -0.03,-0.1 0.17,-0.1 0.41,-0.19l-0.43 -6.51 -1.05 -4.71c-2.12,-1.3 -0.62,0.72 -1.94,-1.03 -0.29,-0.38 -0.68,-2.21 -0.87,-2.92 -2.42,-8.87 -5.15,-11.98 -7.85,-18.75l1.43 -1.12 -4.91 -7.26 -1.93 -2.09 -2.14 0.24c-3.98,-4.45 -7.31,-7.53 -11.74,-10.94 -4.42,-3.41 2.13,-1.29 -3.66,-4.93 -2.2,-1.38 -4.62,-2.59 -6.78,-4.11l-0.52 -0.4 -1.28 1.35c-1.49,0.02 -3.61,-1.16 -5.23,-1.81 -2.08,-0.83 -3.42,-1.2 -5.48,-2.08 -1.67,-0.05 -2.52,-0.98 -5.18,-0.92 1.14,2.19 2.12,4.24 3.19,6.43 1.15,2.37 2.66,4.54 2.42,6.32 -2.37,-1 -5.29,-10.78 -7.07,-12.79 -0.85,-0.96 -1.2,-0.76 -2.58,-0.98 -6.73,-1.08 0.4,-1.66 -6.35,-2.56 -1.4,-0.18 -0.52,0.27 -1.35,-0.37 -1.83,0.3 -2.51,0.18 -4.38,0.19 -8.06,0.03 -0.33,3.81 -1.83,6.67 -1.68,0.18 0.13,1.95 -4.11,-4.14 -1.55,0.24 -10.93,1.89 -11.83,1.75l-8.87 3.44c0.33,1.2 -0.12,-0.35 -1.69,-0.98l-8.61 5.16c-2.19,2.29 -0.46,-0.18 -0.57,2.67l-5 4.11 -2.41 -5.57 -3.76 -9.38 -4 -9.42 -7.41 -8.79c-1.5,-1.58 -3.74,-3.8 -4.48,-5.75 -1.67,-0.53 -9.01,-6.1 -9.84,-6.84 -3.08,-1.96 -6.73,-5.82 -10.19,-6.51l-4.96 2.64c-1.55,0.93 -3.1,1.85 -4.64,2.79l-3.82 2.26c-0.14,0.05 -0.28,0.09 -0.4,0.14l-0.79 0.21c-1.58,1.95 -4.63,3.39 -6.89,4.77l-8.83 5.62 -6.34 4.06 -10.54 6.76 -8.33 5.28 -8.86 5.82 -7.55 4.9 -24.69 16.09 -17.75 -18.74 9.59 -10.58 -1.23 -2.18 2.33 -2.22c-2.8,-5.41 -10.02,-14.17 -14,-19.03 -1.03,0.07 -1.24,1.04 -3.28,-0.08 -3.67,-2 2.06,0.31 -1.03,-0.66l-16.7 9.08c-1.56,-1.76 -1.51,-2.08 -3.26,-2.68 -0.11,-0.04 -0.25,-0.05 -0.36,-0.09 -0.1,-0.04 -0.25,-0.05 -0.36,-0.1 -1.15,-0.49 -0.38,0.14 -1.56,-1.21 -1.72,-1.96 -3.04,-3.78 -4.93,-5.69 -3.89,-3.92 -2.9,-3.46 -12.56,-0.2 -4.47,1.51 -8.8,3.17 -13.29,5.09 -2.11,0.89 -4.39,1.92 -6.6,2.93l-7.27 3.09c-1.7,1.87 -5.39,3.34 -7.72,4.48l-11.25 6.2c-0.12,0.04 -0.29,0.09 -0.45,0.11l-22.19 15.33c-1.41,-2.1 -4.49,-7.29 -6.15,-8.82 -2.88,-2.63 -4.49,-1.55 -7.55,-1.45l-0.01 0zm285.09 179.91c-4.58,-4.06 -21.25,-5.55 -28.45,-0.56 4.16,1.48 21.97,3.02 28.45,0.56zm-180.54 106.43c-3.91,-5.7 -14.76,-5.33 -21.17,-0.74 3.22,2.19 16.35,1.62 21.17,0.74zm289.66 -197.41c-3.14,-4.47 -15.23,-8.78 -19.19,-9.89l-1.15 4.42c5.26,1.48 14.32,1.46 20.34,5.47zm-275.3 161.75c-1.83,4.08 -5.4,20.15 -3.76,24.8 2,-4.08 3.85,-16.24 4,-21.49 0.03,-1.2 -0.3,-2.73 -0.24,-3.31zm-13.84 15.45c-4.04,-5.15 -12.59,-4.19 -18.73,0.32 1.96,2.13 14.78,1.41 18.73,-0.32zm288.33 -190.23c1.49,-1.22 1.03,-1.28 1.1,-3.13l0.74 -8.84c0.19,-2.31 0.14,-3.72 0.68,-5.99 0.38,-1.6 1.96,-3.86 1.88,-5.59 -4.44,2.12 -5.03,21.23 -4.4,23.55zm-122.93 78.66c-0.97,-4.89 -12.02,-5.48 -15.04,-5.34 -4.7,0.21 -12.95,1.48 -17.89,4.81 7.73,2.36 21.08,-1.81 32.93,0.53zm118.86 -91.71c-2.76,-1.88 -17.39,-6.03 -20.6,-5.12 0.29,1.75 -0.04,2.77 0.31,4.51 8.3,-1.21 15.84,0.58 20.29,0.61zm-279.8 186.09c0.57,-3.17 5.34,-15.03 3.47,-22.16 -1.9,3.34 -5.28,18.55 -3.47,22.16zm-7.05 -4.03c-4.09,-4.72 -15.11,-5.26 -21.75,-1.16 4.13,2.22 15.68,3.19 21.75,1.16zm91.1 -80.79c-5.25,-4.5 -19.45,-9.41 -16.8,3.1 4.02,19.06 37.55,49.75 46.82,42.89 3.02,-2.23 1.74,-8.52 -0.22,-11.99 -5.45,1.22 -6.93,0.76 -11.88,-1.98 -7.68,-4.24 -17.02,-13.4 -20.81,-21.52 -2.56,-5.48 -3.06,-8.89 2.89,-10.5zm64.89 -49.83c-2.83,4.34 -3.93,20.54 -0.15,27.37 2.92,-4.32 3.58,-19.66 0.15,-27.37zm125.19 -81.37c-0.09,4.22 0.56,18.64 1.93,21.36 1.26,-1.42 0.43,-3.99 0.21,-5.85 -0.26,-2.26 -0.38,-4.06 -0.46,-6.21 -0.09,-2.5 -0.2,-10.75 -0.89,-12.17 -0.93,1 -0.75,1.05 -0.79,2.87zm-7.33 6.95c-2.79,-1.79 -7.43,-2.32 -10.49,-2.59 -2.42,-0.21 -8.44,-0.85 -11.05,-0.23l0.82 4.77c7.47,-2.74 14.98,-1.76 20.72,-1.95zm-128.98 89.11c-6.14,-5.27 -23.78,-3.43 -32.86,2.64 4.43,1.47 26.15,-1.45 32.86,-2.64zm-150.02 103.03c2.44,-5.96 4.38,-18.7 3.8,-25.16 -2.29,5.22 -5.3,20.49 -3.8,25.16zm19.54 -45.03c7.21,10.69 13.72,16.71 24.77,7.83 -5.02,1.02 -7.14,4.29 -12.17,1.3 -4.32,-2.57 -6.09,-7.6 -8.6,-11.79l-4 2.66zm52.9 -33.91c-13.32,1.39 -12.71,13.07 -9.71,22.81 6.52,21.2 35.2,51.14 56.23,53.26 4.02,0.41 11.37,-0.27 13.17,-6.18l-2.97 -0.09c-6.22,0.16 -13.39,-2.73 -19.01,-5.87 -18.39,-10.26 -42.17,-37.5 -39.35,-58.27 0.28,-2.07 1.42,-3.77 1.64,-5.66zm-76.38 68.59c-4.24,-7.09 -21.98,-6.23 -29.79,-0.36 8.49,2.3 18.34,-1.34 29.79,0.36zm214.12 -121.04l-9.77 10.78c4.13,4.21 10.93,7.21 15.45,8.7 34.19,11.25 57.33,-24.81 36.55,-57.04 -7.07,-10.98 -23.71,-16.6 -31.27,-15.68 3.74,1.88 7.44,2.7 11.65,5.38 4.06,2.58 7.74,5.69 10.63,10.38 7.62,12.36 10.63,27.71 2.47,38.63 -8.92,11.94 -25.68,8.8 -35.71,-1.15zm59.5 -86.38c0.36,3.1 2.37,16.4 3.57,17.26 0.87,-1.19 0.74,-0.41 0.33,-2.49 -0.79,-3.95 -2.3,-15.09 -3.4,-17.26 -1.01,1.42 -0.7,0.76 -0.5,2.49zm-130.44 106.08c2.65,-4.35 1.56,-15.63 -2.62,-22.45 -2.48,4.7 -1.67,15.71 2.62,22.45zm-103.59 49.49c-2.21,0.62 -24.65,12.25 -26.62,13.96l2.56 3.89 24.06 -17.85zm180.5 -123.81c-9.05,5.97 -18.28,13.37 -27.04,19.9 -8.77,6.53 -18.09,13.31 -26.35,20.36l3.8 2.79 49.59 -43.05zm45.94 -25.32c-4.93,-3.63 -20.76,-1.34 -25.14,0.6l1.78 4.35c7.35,-3.04 18.09,-7.14 23.36,-4.95zm-258.96 156.57l2.71 4.06 24.69 -18.48 -27.4 14.42zm145.81 -98.84c1.11,3.24 2.12,2.56 4.57,0.9 9.59,-6.52 36.21,-23.93 41.55,-28.71 -1.1,-3.94 -2.75,-2.42 -5.81,-0.35 -4.18,2.84 -40.19,26.27 -40.31,28.16zm-21.84 31.49c-6.87,-4.77 -26.81,1.29 -36.2,8.86 6.98,1.07 27.44,-6.99 36.2,-8.86zm-186.13 114.54c-5.54,-5.85 -18.2,-10.91 -16.06,1.54 1.38,8.04 7.11,17.43 12.42,24.46 4.36,5.77 24.49,27.56 28.67,16.93 1.06,-2.68 0.04,-8.11 -1.87,-11.63 -1.24,6.01 -3.31,7.79 -10.99,3.1 -13.91,-8.51 -31.77,-41.12 -12.17,-34.4zm43.96 -14.66c1.53,-2.9 1.94,-18.54 0.14,-23.76 -1.63,2.88 -1.89,18.43 -0.14,23.76zm-9.79 -10.91c-1.63,-1.62 -4.73,-2.74 -6.32,-2.79 -2.32,-0.07 -5.63,2.98 -7.81,4.56 2.06,0.26 12.47,-1.46 14.13,-1.77zm135.45 -92.56c3.25,-3.06 4.2,-8.57 0.84,-12.91 -3.16,3.08 -4.19,8.94 -0.84,12.91zm-117.83 69.03l-7.89 7.16c1.81,2.06 4.06,3.96 5.96,5.92 0.98,1.02 1.78,1.88 2.69,2.92 1.33,1.52 1.49,1.92 2.82,2.43l-3.58 -18.43zm156.45 -108.7c-2.86,1.94 -4.28,1.96 -2.32,4.85 6.72,-3.62 44.12,-28.61 45.86,-31.36 -1.26,-2.08 -1.87,-1.7 -3.83,-0.38l-39.71 26.89 0 0zm-196.22 131.1c-2.51,0.73 -4.93,1.7 -7.2,3.36 0.13,0.05 0.3,0.11 0.38,0.13l2.16 0.41c0.81,0.05 1.45,0.01 2.51,0 1.83,0 3.06,0.06 5.11,-0.47l-2.96 -3.43zm285.97 -189.54c-3.4,-1.1 -8.94,0.4 -13.33,1.36 -2.5,0.55 -11.64,2.6 -13.21,3.76l1.89 4.29c10.5,-5.42 14.18,-6.33 24.65,-9.41zm-136.9 92.67c-8.03,-5.42 -24.64,4.66 -32.66,12.31 0.15,0.02 0.33,0.03 0.44,0.03 2.52,0.01 5.49,-1.36 7.81,-2.28 8.99,-3.55 14.7,-6.92 24.41,-10.06zm40.08 -38.47c1.69,-0.19 1.54,-0.25 3.24,-1.4l38.89 -26.34c2.53,-1.7 3.98,-2.25 4.96,-4.18 -1.44,-2.12 -1.41,-1.88 -3.76,-0.29l-42.2 28.58c-2.38,1.61 -2.59,1.46 -1.13,3.63zm-176.08 219c-6.17,-0.45 -12.08,-3.6 -17.27,-7.4 -6.63,-4.85 -12.59,-10.7 -17.92,-17.94 -7.09,-9.61 -16.72,-28.09 -13.22,-40.11 0.48,-1.62 1.5,-3.12 1.77,-4.56 -12.46,-0.8 -12.5,11.72 -10.64,20.13 2.06,9.25 7.82,19.99 13.99,28.23 7.8,10.44 32.33,37.31 46.19,22.44l-2.9 -0.79zm59.4 -152.2c-0.63,-1.61 -2.66,-4.01 -3.38,-4.57 -2.57,-0.34 -14.8,8.9 -16.65,10.35 1.53,2.44 5.04,9.76 7.91,8.83l16.19 -9.65c-0.9,-1.73 -2.47,-4.17 -4.07,-4.96l0 0zm116.71 -79.18l39.71 -26.9c3.86,-2.61 4.8,-2.62 3.22,-5.21 -1.65,-0.06 -46.45,30.1 -48.07,32.6 1.88,2.57 2.7,1.16 5.14,-0.49l0 0zm-203.38 136.48c-0.77,-0.74 -2.67,-2.2 -3.57,-2.69 -1.79,-0.97 -1.82,-0.68 -4.09,0.36 -3.25,1.49 -6.12,3.1 -8.96,5.39 3.59,1.05 12.41,-1.58 16.62,-3.06zm196.49 -147.52l-2.72 2.59 1.96 2.44 2.67 -1.34 42.65 -28.81 3.39 -2.74 -2.05 -2.79 -3.21 1.88 -42.68 28.77 -0.01 0zm-108.2 44.95l-14.63 9.77 16.22 23.65c2.01,-1.43 8.96,-13.02 10.63,-15.82l-12.22 -17.6zm95.89 -47.58l24.07 50.02c-1.6,-3.25 -3.44,-9.24 -4.96,-13.2 -2.79,-7.3 -12.47,-34.06 -14.83,-38.93l-4.28 2.11zm54.62 -32.94c1.7,-1.15 3.6,-2.11 2.26,-4.09 -1.34,-1.97 -2.59,-0.49 -4.49,0.79 -9.94,6.71 -38.99,25.56 -46.27,31.8l1.92 2.75c13.53,-8.25 32.81,-21.93 46.58,-31.25zm-254.39 173.66c-4.28,-3.42 -5.35,-3.21 -10.31,-0.37 -2.47,1.4 -7.33,4.68 -9.07,7.12 -0.95,1.33 -0.32,0.45 -0.54,1.01 4.78,-0.31 14.95,-5.09 19.92,-7.76zm46.85 11.18c-10.33,-11.89 -47.22,-36.91 -60.53,-39.81 -1.75,1.64 -2.59,4.19 -3.1,5.87 2.17,1.35 4.95,2.33 7.51,3.54 16.18,7.57 39.56,20.14 48.78,35.76l7.34 -5.36zm121.12 -177.77l-90.95 61.56 7.53 13.82 89.55 -71.49 -6.13 -3.89zm-96.41 155.16c4.03,-4.09 4.39,-5.4 0.84,-10.11 -9.62,-12.75 -41.35,-25.21 -56.57,-30.89 -4.76,-1.78 -4.78,-2.78 -10.49,1.17 4.06,3.12 12.27,7.11 17.01,9.83 14.75,8.47 36.16,20.44 49.21,30zm-87.28 -161.33c-2.84,1.11 0.08,3.76 1.78,6.3 25.12,37.39 79.63,119.65 100.72,143.59 5.54,6.28 7.91,7.69 20.13,-0.56 1.97,-1.33 3.78,-2.71 5.64,-4.19 2.08,-1.65 3.53,-2.11 2.74,-4.29 -2.37,-0.16 -3.48,1.85 -7.33,4.67 -12.14,8.89 -14.15,8.77 -19.76,2.35 -7.42,-8.49 -14.29,-18.36 -21.02,-27.54 -24.9,-33.93 -50.29,-72.49 -74.08,-107.94 -2.54,-3.78 -5.94,-10.75 -8.82,-12.39zm207.93 16.83c-5.88,-4.34 -12.7,-15.19 -17.39,-18.48l-3.04 2.62c0.34,3.02 0.36,1.17 0.61,1.57l13.48 13.72c1.24,1.16 2.77,2.51 4.06,3.39 1.73,1.18 1.95,1.27 4.26,0.07 6.74,-3.5 44.37,-32.26 46.1,-34.51 -10.88,7.06 -39.25,27.38 -48.08,31.62l0 0zm-96.19 -15.92l-6.78 -7.19 -6.66 -6.92c-1.62,-1.86 -3.54,-4.48 -5.54,-5.46l-2.8 1.23 -9.09 4.28 -8.57 4.39c-8.51,4.14 -17.35,9.27 -25.72,13.98 -7.58,4.26 -19.81,10.98 -26.25,16.22 -0.4,1.44 -1.45,-0.53 0.04,1.84l13.12 19.47c18.81,28.77 39.31,57.04 59.26,84.97 2.31,-0.51 16.63,-10.5 19.25,-12.63 -10.44,-15.76 -22.96,-34.45 -31.36,-51.18l55.4 -36.46 -1.25 -2.23c-0.36,-0.44 -1.1,-1.12 -1.54,-1.57l-21.51 -22.74 0 0zm-104.57 29.03l-3.37 4.2c2.23,5.1 7.26,12.44 10.33,17.51 1.38,2.28 3.09,7.04 5.8,7.55l7.46 0.46 -20.22 -29.72zm105.82 -51.98c-2.39,0.35 -6.03,2.88 -8.66,4.48l17.32 18.43 4.47 -5.16 -13.13 -17.75zm-128.65 80.31l-9.49 11.65 14.94 26.56c1.17,2.46 2.71,5.83 4.67,7.69 0.22,2.64 3.4,6.99 5.01,9.68 0.45,1.18 1.96,4.02 3.22,5.18 0.13,1.78 2.27,5.06 3.35,6.82 3.87,-2.51 7.53,-5.35 11.48,-7.87 4.62,-2.95 7.11,-5.24 10.58,-3.99 6.05,2.17 11.79,4.37 18.13,6.78 4.71,-3.26 8.67,-8.55 14.57,-12.49l-29.57 -43.01 -14.66 -1.68c-4.98,-0.38 -11.25,10.43 -16.03,5.09 -2.89,-3.23 -5.57,-7.84 -7.87,-11.55l-3.18 -5.32 -5.15 6.46zm104.1 -87.89c-3.33,0.47 -15.29,4.81 -18.88,7.32l5.09 6.7c1.82,-0.01 16.07,-6.22 18.41,-7.58 -1.16,-2.59 -2.73,-4.8 -4.62,-6.44zm-42.94 30.44c-4.38,-8.39 -5.47,-7.89 -13.04,-3.37 -5.39,3.2 -10.5,6.94 -15.61,10.55 1.23,1.8 3.68,5.88 6.06,6.14 2.65,0.16 19.5,-10.9 22.59,-13.32z"/>
   <path class="fil5" d="M2902.07 841.66c1.16,1.74 4.01,3.27 5.6,3.94l4.35 -3.15 9.39 -6.44 8.6 12.39 -38.89 22.2c-0.99,0.93 -0.5,0.18 -0.76,1.18l12.94 25.4 -16.7 5.58c-5.53,-5.49 -14.45,-20.82 -19.36,-24.57l6.24 -4.28c1.89,2.36 4.72,7.17 7.08,8.21l4.54 6.2c1.84,2.03 3.12,2.61 8.25,-2.08l-7.16 -10.4 -5.28 -7.66 -10.48 -15.13c3.64,-2.97 10.89,-6.58 12.71,-10.52l-7.59 -20.13 9.71 -4.85c3.82,5.4 11.63,22.85 16.81,24.11z"/>
   <path class="fil5" d="M2846.74 915.91c1.12,1.93 3.65,4.5 5.36,5.22l2.9 -1.84c1.97,0.01 5.2,-2.27 7.03,-3.74 -4.33,-8.22 -10.07,-15.89 -15.11,-23.89l1.67 -0.75 3.15 -1.04 20.58 28.17c-1.4,2.24 -11.95,10.78 -14.69,12.51l-18.03 -9.05 -13.74 8.77 -5.19 -7.64c6.67,-4.05 13.75,-6.98 20.13,-11.66 1.59,1.45 4.06,4.34 5.94,4.94l0 0z"/>
   <polygon class="fil5" points="2921.13,927.18 2907.45,936.46 2889.43,909.75 2905.24,905.17 "/>
   <polygon class="fil5" points="2935.23,831.78 2944.74,838.57 2933.57,844.17 2929.01,834.47 "/>
   <path class="fil6 str0" d="M184.44 1278.14c465.53,-409.88 913.83,-383.2 1351.16,-78.89 400.67,-273.51 819.97,-313.15 1272.11,14.09"/>
  </g>
 </g>
</svg>
